<svg width="828" height="369" viewBox="0 0 828 369" fill="none" xmlns="http://www.w3.org/2000/svg">
<path d="M788.01 28.8688C789.118 26.351 786.117 23.2435 781.221 22.1311C777.491 21.2839 771.279 21.9399 770.417 24.5119C769.947 25.918 772.349 30.046 777.207 31.2491C782.065 32.4523 786.901 31.3866 788.01 28.8688Z" fill="black" fill-opacity="0.05"/>
<path d="M785.5 37.1127C782.77 36.9607 777.889 38.8323 777.914 40.9948C777.931 42.4849 781.265 44.9253 785.438 44.944C789.611 44.9623 793.007 43.2244 793.024 41.0618C793.041 38.8993 789.661 37.3446 785.5 37.1127Z" fill="black" fill-opacity="0.05"/>
<path d="M822.166 21.9998C817.976 20.1918 815.374 21.2734 812.788 22.1797C810.369 23.0272 807.641 23.1705 805.065 22.642C800.505 21.7064 795.838 23.1187 793.304 25.9977C790.77 28.8766 790.874 32.6503 793.814 35.4274C795.474 36.9958 796.372 38.9336 796.283 40.935C796.189 43.0751 795.886 45.2946 799.749 47.4734C804.518 50.1624 811.43 48.9092 814.716 45.1745C815.642 44.1222 816.198 42.9677 816.407 41.7967C816.635 40.529 817.227 39.3296 818.132 38.288C819.054 37.2541 820.29 36.3737 821.756 35.7191C823.109 35.1143 824.306 34.2771 825.232 33.2248C828.519 29.4907 827.338 24.2314 822.166 21.9998Z" fill="black" fill-opacity="0.05"/>
<path d="M794.778 21.1521C797.419 19.3893 796.803 15.6369 793.402 12.7701C790.001 9.90359 783.996 9.88909 782.461 10.7715C779.656 12.3851 781.32 16.9222 783.838 19.1531C787.143 22.0825 792.136 22.9148 794.778 21.1521Z" fill="black" fill-opacity="0.05"/>
<path d="M811.685 19.7696C814.324 18.8992 815.103 15.8715 813.424 13.0064C811.744 10.1416 807.435 8.81488 805.604 9.39488C802.948 10.2366 802.595 14.339 803.865 16.1577C805.8 18.9306 809.045 20.6399 811.685 19.7696Z" fill="black" fill-opacity="0.05"/>
<path d="M732.992 22.7284C736.568 23.241 740.397 20.5275 741.257 16.6291C741.912 13.6597 740.189 8.98934 736.572 8.6738C734.595 8.50118 729.296 10.8919 728.307 14.7731C727.319 18.6539 729.415 22.2157 732.992 22.7284Z" fill="black" fill-opacity="0.05"/>
<path d="M717.051 28.2048C719.997 27.9289 721.663 25.1329 721.422 21.9153C721.264 19.8045 718.064 16.3169 715.124 16.6245C713.098 16.8365 710.22 19.7165 710.752 22.914C711.285 26.112 714.104 28.4806 717.051 28.2048Z" fill="black" fill-opacity="0.05"/>
<path d="M743.741 34.9536C744.405 31.3359 741.859 27.9508 737.601 26.3952C733.343 24.8399 728.22 25.423 724.831 28.0454C722.918 29.5265 720.4 30.4721 717.663 30.672C714.737 30.8857 711.675 30.9503 709.225 34.2C706.201 38.2113 708.831 43.3366 714.354 45.3545C715.91 45.9231 717.556 46.1945 719.179 46.1986C720.935 46.2028 722.647 46.4966 724.186 47.051C725.717 47.6182 727.08 48.4478 728.168 49.4825C729.172 50.4378 730.472 51.2429 732.028 51.8111C737.551 53.829 744.553 52.2223 746.9 47.9641C748.802 44.5139 746.982 42.6658 745.402 40.806C743.924 39.0667 743.365 36.9967 743.741 34.9536Z" fill="black" fill-opacity="0.05"/>
<path d="M755.629 24.7005C759.077 21.7132 758.295 17.1123 756.889 16.0555C754.317 14.1229 748.362 16.003 745.661 18.2291C742.115 21.1515 741.649 25.0872 744.401 26.8741C747.154 28.6611 752.181 27.6879 755.629 24.7005Z" fill="black" fill-opacity="0.05"/>
<path d="M752.411 33.1727C748.896 35.0253 747.002 37.7385 748.539 39.6438C750.076 41.5489 754.303 41.7408 757.979 40.0719C761.655 38.4034 762.885 34.9251 761.851 33.6012C760.35 31.6796 754.717 31.9575 752.411 33.1727Z" fill="black" fill-opacity="0.05"/>
<path d="M663.398 10.428C665.2 9.50622 665.283 7.13998 663.44 5.2184C662.036 3.7546 658.664 2.32912 656.957 3.34688C656.023 3.9034 655.137 6.60107 656.915 8.55648C658.694 10.5119 661.596 11.3498 663.398 10.428Z" fill="black" fill-opacity="0.05"/>
<path d="M658.06 13.7642C656.798 12.9221 653.472 12.4668 652.402 13.5332C651.666 14.2679 652.079 16.4011 654.114 17.5835C656.149 18.7659 658.682 18.8692 659.772 17.8145C660.861 16.7601 659.983 15.0478 658.06 13.7642Z" fill="black" fill-opacity="0.05"/>
<path d="M678.887 14.1172C677.279 13.8524 675.871 13.1554 674.873 12.1725C673.106 10.4318 670.114 9.81144 667.433 10.5095C664.754 11.2076 662.918 13.0853 662.97 15.2727C662.999 16.508 662.47 17.7094 661.426 18.6654C660.31 19.6873 659.052 20.6895 659.857 22.8434C660.849 25.5017 664.862 26.8309 668.338 25.9253C669.318 25.6702 670.167 25.2607 670.855 24.746C671.601 24.1888 672.49 23.7679 673.454 23.5121C674.422 23.2646 675.469 23.181 676.513 23.2722C677.479 23.3564 678.484 23.2829 679.463 23.0278C682.94 22.1222 684.991 19.2139 683.572 16.6664C682.423 14.6023 680.608 14.4003 678.887 14.1172Z" fill="black" fill-opacity="0.05"/>
<path d="M670.563 8.54838C672.738 8.42755 674.312 6.41586 674.079 4.05514C673.845 1.69442 670.911 -0.00103523 669.718 4.74254e-07C667.537 0.00172665 666.085 2.6925 666.202 4.49325C666.358 6.85742 668.388 8.66921 670.563 8.54838Z" fill="black" fill-opacity="0.05"/>
<path d="M679.54 12.6276C681.268 12.9435 683.163 11.6789 683.773 9.8032C684.382 7.92754 682.933 6.06568 681.747 5.83507C680.025 5.50053 677.801 7.41141 677.514 8.65944C677.077 10.562 677.812 12.312 679.54 12.6276Z" fill="black" fill-opacity="0.05"/>
<path d="M586.856 29.694C588.801 28.5962 588.731 25.9544 586.544 23.8823C584.878 22.3043 581.02 20.845 579.186 22.046C578.182 22.703 577.38 25.7456 579.497 27.8577C581.615 29.9695 584.909 30.7919 586.856 29.694Z" fill="black" fill-opacity="0.05"/>
<path d="M576.98 38.033C579.331 39.2727 582.163 39.29 583.305 38.072C584.447 36.8537 583.349 34.9784 581.117 33.6212C579.652 32.7309 575.911 32.3518 574.792 33.5822C574.021 34.4301 574.629 36.7933 576.98 38.033Z" fill="black" fill-opacity="0.05"/>
<path d="M585.216 38.956C584.042 40.1392 582.708 41.305 583.752 43.6761C585.042 46.6023 589.608 47.9294 593.423 46.785C594.498 46.4625 595.418 45.9733 596.149 45.3726C596.941 44.7222 597.904 44.2185 598.962 43.896C600.026 43.5822 601.186 43.4489 602.358 43.51C603.44 43.5667 604.556 43.4455 605.631 43.1234C609.446 41.9789 611.533 38.656 609.776 35.8703C608.352 33.6132 606.314 33.4585 604.376 33.2089C602.563 32.9755 600.945 32.2529 599.765 31.1951C597.675 29.3222 594.295 28.7464 591.354 29.6285C588.413 30.5105 586.496 32.6759 586.704 35.1129C586.821 36.4893 586.314 37.8496 585.216 38.956Z" fill="black" fill-opacity="0.05"/>
<path d="M594.71 27.3197C597.128 27.1008 598.745 24.7964 598.322 22.1726C597.9 19.5491 594.51 17.7715 593.18 17.8188C590.748 17.9051 589.313 20.9622 589.568 22.9659C589.904 25.5963 592.293 27.5386 594.71 27.3197Z" fill="black" fill-opacity="0.05"/>
<path d="M604.997 31.5216C606.947 31.8071 608.973 30.3237 609.524 28.2081C610.074 26.0928 608.33 24.0721 606.992 23.8612C605.048 23.555 602.7 25.7717 602.465 27.1748C602.108 29.3132 603.048 31.2361 604.997 31.5216Z" fill="black" fill-opacity="0.05"/>
<path d="M638.456 105.128C641.644 102.571 643.995 97.2165 640.766 95.1606C639.001 94.0365 631.814 93.7859 627.518 97.0639C623.222 100.342 622.187 104.804 625.207 107.031C628.227 109.258 634.269 108.485 638.456 105.128Z" fill="black" fill-opacity="0.05"/>
<path d="M603.539 96.4537C601.303 99.8067 601.994 103.464 605.084 104.623C608.173 105.782 612.19 103.881 614.726 100.651C616.39 98.531 616.293 93.6069 613.181 92.4814C611.038 91.706 605.776 93.1012 603.539 96.4537Z" fill="black" fill-opacity="0.05"/>
<path d="M626.519 112.814C623.736 109.248 618.274 107.333 612.739 108.231C609.612 108.738 606.361 108.435 603.54 107.304C600.524 106.095 597.504 104.675 592.337 106.635C585.958 109.054 584.094 115.288 587.704 119.914C588.721 121.218 590.081 122.277 591.648 123.066C593.344 123.92 594.748 125.033 595.76 126.314C596.755 127.604 597.36 129.067 597.522 130.595C597.672 132.005 598.238 133.414 599.255 134.717C602.865 139.343 611.025 141.177 616.961 138.191C621.77 135.772 621.598 133.103 621.67 130.538C621.737 128.139 622.977 125.865 625.097 124.069C628.853 120.89 629.301 116.38 626.519 112.814Z" fill="black" fill-opacity="0.05"/>
<path d="M641.354 108.808C635.406 109.921 631.57 113.504 632.696 116.566C633.823 119.628 639.526 121.119 645.433 119.897C651.341 118.674 654.543 113.842 654.091 112.138C653.265 109.023 645.884 107.961 641.354 108.808Z" fill="black" fill-opacity="0.05"/>
<path d="M635.023 126.542C630.026 126.633 625.858 128.343 625.707 130.931C625.556 133.519 629.481 135.75 634.475 135.914C639.469 136.078 643.653 133.307 643.791 131.525C643.992 128.939 638.301 126.482 635.023 126.542Z" fill="black" fill-opacity="0.05"/>
<path d="M509.223 104.587C513.202 104.862 517 101.592 517.388 97.2656C517.683 93.9696 515.139 89.0051 511.144 88.9485C508.959 88.9174 503.509 91.9513 502.979 96.2699C502.448 100.588 505.243 104.312 509.223 104.587Z" fill="black" fill-opacity="0.05"/>
<path d="M492.583 111.839C495.762 111.303 497.185 108.115 496.467 104.62C495.995 102.327 492.006 98.772 488.837 99.3423C486.653 99.7352 483.918 103.111 484.952 106.561C485.987 110.012 489.403 112.375 492.583 111.839Z" fill="black" fill-opacity="0.05"/>
<path d="M512.284 136.434C518.603 138.199 526.025 135.886 527.985 131.047C529.574 127.126 527.324 125.252 525.335 123.347C523.474 121.564 522.571 119.347 522.691 117.086C522.905 113.081 519.644 109.586 514.772 108.226C509.901 106.866 504.385 107.911 501.056 111.045C499.175 112.816 496.559 114.05 493.598 114.486C490.431 114.953 487.096 115.267 484.879 119.012C482.144 123.635 485.743 129.025 492.063 130.789C493.843 131.286 495.68 131.452 497.452 131.327C499.372 131.191 501.283 131.376 503.043 131.859C504.796 132.356 506.403 133.154 507.737 134.198C508.969 135.162 510.503 135.937 512.284 136.434Z" fill="black" fill-opacity="0.05"/>
<path d="M522.257 108.208C525.517 109.94 530.87 108.477 534.214 104.938C537.558 101.4 536.051 96.4367 534.365 95.3941C531.282 93.4877 525.043 96.0162 522.408 98.6631C518.948 102.138 518.997 106.474 522.257 108.208Z" fill="black" fill-opacity="0.05"/>
<path d="M528.587 121.827C530.536 123.785 535.18 123.658 538.959 121.542C542.739 119.427 543.59 115.529 542.272 114.165C540.361 112.185 534.248 112.938 531.9 114.449C528.322 116.753 526.638 119.868 528.587 121.827Z" fill="black" fill-opacity="0.05"/>
<path d="M565.861 190.774C569.635 193.032 576.363 191.622 580.583 187.446C583.797 184.265 585.621 177.987 581.638 175.941C579.46 174.822 571.272 175.173 566.916 179.269C562.559 183.366 562.087 188.517 565.861 190.774Z" fill="black" fill-opacity="0.05"/>
<path d="M539.624 180.697C537.615 184.696 538.973 188.781 542.659 189.823C546.343 190.864 550.6 188.354 552.967 184.467C554.521 181.917 553.637 176.342 549.933 175.341C547.381 174.651 541.634 176.698 539.624 180.697Z" fill="black" fill-opacity="0.05"/>
<path d="M568.256 197.215C564.541 193.418 558.048 191.729 551.913 193.236C548.447 194.088 544.714 194.032 541.338 192.998C537.728 191.893 534.082 190.551 528.53 193.23C521.678 196.536 520.544 203.769 525.364 208.695C526.722 210.083 528.43 211.164 530.33 211.92C532.388 212.739 534.155 213.876 535.504 215.24C536.833 216.615 537.75 218.22 538.174 219.938C538.566 221.524 539.428 223.07 540.786 224.459C545.606 229.385 555.146 230.743 561.407 226.833C566.479 223.666 565.865 220.654 565.544 217.74C565.243 215.014 566.291 212.326 568.413 210.103C572.172 206.165 571.972 201.013 568.256 197.215Z" fill="black" fill-opacity="0.05"/>
<path d="M584.433 191.363C577.865 193.15 574.078 197.552 575.836 200.924C577.595 204.297 584.294 205.483 590.801 203.575C597.307 201.666 600.178 195.905 599.398 194.014C597.971 190.555 589.436 190.002 584.433 191.363Z" fill="black" fill-opacity="0.05"/>
<path d="M580.053 212.027C574.402 212.573 569.946 214.879 570.181 217.827C570.416 220.775 575.217 222.957 580.906 222.702C586.593 222.447 590.901 218.935 590.778 216.902C590.598 213.952 583.761 211.669 580.053 212.027Z" fill="black" fill-opacity="0.05"/>
<path d="M513.142 246.998C511.941 247.466 510.172 250.326 511.586 252.794C513.001 255.262 515.99 256.669 518.264 255.936C520.538 255.203 521.317 252.581 519.821 250.14C518.681 248.281 515.339 246.143 513.142 246.998Z" fill="black" fill-opacity="0.05"/>
<path d="M511.338 258.78C510.177 257.636 506.604 256.587 505.105 257.6C504.071 258.298 503.914 260.742 505.838 262.391C507.762 264.039 510.552 264.567 512.072 263.57C513.59 262.573 513.108 260.523 511.338 258.78Z" fill="black" fill-opacity="0.05"/>
<path d="M534.427 262.568C532.711 262.01 531.346 261.005 530.519 259.747C529.056 257.52 525.903 256.341 522.715 256.682C519.528 257.022 516.938 258.815 516.363 261.259C516.038 262.64 515.1 263.892 513.66 264.786C512.121 265.742 510.43 266.653 510.701 269.183C511.035 272.306 515.119 274.441 519.254 273.999C520.419 273.875 521.485 273.557 522.399 273.096C523.391 272.597 524.504 272.273 525.652 272.145C526.802 272.027 527.991 272.105 529.129 272.377C530.179 272.628 531.321 272.71 532.485 272.586C536.62 272.144 539.747 269.239 538.905 266.17C538.224 263.685 536.261 263.164 534.427 262.568Z" fill="black" fill-opacity="0.05"/>
<path d="M526.787 255.011C529.244 255.23 531.581 253.246 532.005 250.579C532.43 247.912 529.653 245.544 528.324 245.351C525.894 244.998 523.497 247.757 523.106 249.783C522.593 252.441 524.33 254.791 526.787 255.011Z" fill="black" fill-opacity="0.05"/>
<path d="M540.037 253.812C538.216 253.159 535.185 254.925 534.504 256.268C533.465 258.315 533.777 260.384 535.609 261.018C537.443 261.651 539.92 260.552 541.142 258.562C542.365 256.572 541.292 254.263 540.037 253.812Z" fill="black" fill-opacity="0.05"/>
<path d="M411.508 284.185C412.081 281.288 408.033 278.333 402.425 277.816C398.155 277.422 391.56 279.016 391.271 281.936C391.113 283.533 394.765 287.684 400.353 288.305C405.942 288.926 410.937 287.081 411.508 284.185Z" fill="black" fill-opacity="0.05"/>
<path d="M410.862 293.509C407.853 293.73 403.015 296.457 403.585 298.807C403.979 300.425 408.222 302.608 412.766 302.038C417.311 301.467 420.568 299.095 420.043 296.74C419.516 294.384 415.447 293.172 410.862 293.509Z" fill="black" fill-opacity="0.05"/>
<path d="M446.938 271.875C441.923 270.501 439.365 272.047 436.779 273.399C434.36 274.664 431.428 275.206 428.492 274.996C423.295 274.624 418.573 276.822 416.541 280.313C414.509 283.804 415.572 287.895 419.47 290.5C421.671 291.972 423.135 293.953 423.543 296.143C423.979 298.485 424.208 300.942 428.96 302.766C434.826 305.016 442.031 302.674 444.666 298.145C445.409 296.869 445.723 295.534 445.656 294.23C445.583 292.818 445.927 291.43 446.65 290.169C447.392 288.913 448.516 287.78 449.945 286.86C451.266 286.01 452.356 284.93 453.099 283.654C455.734 279.125 453.126 273.571 446.938 271.875Z" fill="black" fill-opacity="0.05"/>
<path d="M404.513 274.206C408.846 276.925 414.489 277.123 416.919 274.831C419.349 272.539 417.734 268.543 413.312 265.906C408.889 263.269 402.352 264.104 400.905 265.281C398.259 267.434 401.212 272.135 404.513 274.206Z" fill="black" fill-opacity="0.05"/>
<path d="M434.975 270.932C437.627 269.611 437.712 266.206 435.164 263.327C432.615 260.448 427.592 259.615 425.746 260.505C423.068 261.797 423.717 266.311 425.557 268.11C428.361 270.853 432.322 272.253 434.975 270.932Z" fill="black" fill-opacity="0.05"/>
<path d="M335.455 294.096C338.213 294.019 340.427 291.526 340.18 288.537C339.99 286.259 337.659 283.029 334.917 283.257C333.416 283.381 330.044 285.823 330.192 288.816C330.341 291.809 332.697 294.173 335.455 294.096Z" fill="black" fill-opacity="0.05"/>
<path d="M324.917 300.171C327.031 299.592 327.628 297.314 326.721 294.968C326.127 293.428 322.973 291.26 320.87 291.862C319.421 292.277 317.948 294.771 319.065 297.065C320.183 299.36 322.803 300.75 324.917 300.171Z" fill="black" fill-opacity="0.05"/>
<path d="M348.725 305.868C347.24 304.771 346.358 303.313 346.172 301.756C345.844 298.999 343.195 296.823 339.698 296.216C336.2 295.61 332.547 296.694 330.638 299.063C329.56 300.401 327.914 301.421 325.938 301.917C323.824 302.448 321.577 302.885 320.504 305.598C319.178 308.947 322.282 312.398 326.82 313.185C328.098 313.407 329.376 313.397 330.575 313.194C331.873 312.973 333.205 312.972 334.468 313.185C335.727 313.409 336.923 313.849 337.96 314.474C338.918 315.052 340.061 315.481 341.339 315.703C345.876 316.489 350.686 314.41 351.455 310.965C352.077 308.174 350.314 307.041 348.725 305.868Z" fill="black" fill-opacity="0.05"/>
<path d="M344.817 295.704C347.255 296.673 350.748 295.314 352.619 292.668C354.488 290.021 352.869 286.722 351.59 286.121C349.252 285.02 345.279 287.168 343.788 289.157C341.831 291.768 342.378 294.735 344.817 295.704Z" fill="black" fill-opacity="0.05"/>
<path d="M352.17 299.336C349.993 301.152 349.209 303.398 350.777 304.609C352.344 305.821 355.509 305.424 357.847 303.723C360.184 302.022 360.305 299.295 359.241 298.449C357.697 297.221 353.599 298.144 352.17 299.336Z" fill="black" fill-opacity="0.05"/>
<path d="M267.304 351.039C269.594 350.69 270.987 348.379 270.233 345.906C269.658 344.023 267.118 341.564 264.868 342.037C263.637 342.295 261.266 344.683 261.938 347.169C262.611 349.655 265.014 351.387 267.304 351.039Z" fill="black" fill-opacity="0.05"/>
<path d="M259.615 357.201C261.276 356.499 261.357 354.534 260.17 352.666C259.391 351.441 256.358 349.954 254.711 350.674C253.576 351.17 252.802 353.406 254.157 355.208C255.511 357.011 257.955 357.903 259.615 357.201Z" fill="black" fill-opacity="0.05"/>
<path d="M280.543 359.51C279.101 358.746 278.097 357.619 277.656 356.337C276.877 354.067 274.265 352.521 271.231 352.375C268.197 352.228 265.343 353.51 264.181 355.687C263.526 356.916 262.338 357.938 260.776 358.556C259.107 359.218 257.309 359.815 256.909 362.193C256.416 365.128 259.642 367.692 263.578 367.882C264.686 367.935 265.753 367.796 266.717 367.502C267.762 367.184 268.874 367.046 269.968 367.094C271.062 367.151 272.141 367.395 273.123 367.811C274.029 368.195 275.063 368.436 276.172 368.49C280.108 368.679 283.746 366.446 283.757 363.488C283.766 361.091 282.085 360.326 280.543 359.51Z" fill="black" fill-opacity="0.05"/>
<path d="M275.434 351.417C277.65 351.976 280.32 350.48 281.398 348.076C282.476 345.671 280.518 343.081 279.34 342.711C277.184 342.032 274.257 344.237 273.376 346.052C272.219 348.435 273.22 350.858 275.434 351.417Z" fill="black" fill-opacity="0.05"/>
<path d="M282.238 353.696C280.751 355.439 280.507 357.396 282.039 358.247C283.57 359.098 286.143 358.44 287.785 356.778C289.427 355.115 289.028 352.824 287.984 352.227C286.468 351.359 283.213 352.553 282.238 353.696Z" fill="black" fill-opacity="0.05"/>
<path d="M220.409 288.812C223.24 286.611 225.387 281.958 222.604 280.13C221.082 279.131 214.81 278.84 210.999 281.661C207.188 284.481 206.205 288.368 208.804 290.343C211.403 292.318 216.693 291.703 220.409 288.812Z" fill="black" fill-opacity="0.05"/>
<path d="M191.273 288.039C193.951 289.082 197.494 287.462 199.765 284.666C201.256 282.831 201.259 278.53 198.562 277.516C196.703 276.817 192.082 277.983 190.069 280.889C188.056 283.795 188.595 286.996 191.273 288.039Z" fill="black" fill-opacity="0.05"/>
<path d="M209.856 295.407C207.489 292.265 202.754 290.538 197.902 291.267C195.162 291.679 192.329 291.382 189.885 290.366C187.272 289.279 184.661 288.009 180.112 289.67C174.498 291.719 172.76 297.145 175.831 301.222C176.696 302.371 177.865 303.309 179.219 304.014C180.686 304.777 181.892 305.763 182.754 306.892C183.599 308.029 184.102 309.312 184.217 310.648C184.323 311.882 184.791 313.117 185.657 314.266C188.728 318.343 195.822 320.026 201.06 317.477C205.303 315.412 205.2 313.079 205.308 310.839C205.408 308.745 206.532 306.771 208.416 305.224C211.753 302.484 212.224 298.55 209.856 295.407Z" fill="black" fill-opacity="0.05"/>
<path d="M222.867 292.055C217.653 292.967 214.238 296.059 215.168 298.745C216.098 301.43 221.052 302.79 226.234 301.78C231.415 300.771 234.297 296.583 233.932 295.09C233.266 292.361 226.838 291.36 222.867 292.055Z" fill="black" fill-opacity="0.05"/>
<path d="M217.041 307.481C212.675 307.511 209.005 308.962 208.827 311.222C208.649 313.48 212.039 315.468 216.398 315.661C220.756 315.854 224.459 313.476 224.612 311.92C224.833 309.664 219.906 307.461 217.041 307.481Z" fill="black" fill-opacity="0.05"/>
<path d="M139.826 294.958C141.965 296.072 145.518 295.132 147.59 292.771C149.168 290.973 149.849 287.545 147.608 286.551C146.382 286.008 141.992 286.416 139.843 288.738C137.695 291.059 137.686 293.844 139.826 294.958Z" fill="black" fill-opacity="0.05"/>
<path d="M127.289 295.069C129.323 295.531 131.494 294.066 132.582 291.91C133.297 290.496 132.555 287.519 130.514 287.08C129.107 286.778 126.111 288.034 125.222 290.24C124.331 292.446 125.257 294.608 127.289 295.069Z" fill="black" fill-opacity="0.05"/>
<path d="M132.427 296.658C130.603 297.209 128.591 297.279 126.725 296.814C124.729 296.316 122.703 295.691 119.843 297.282C116.313 299.245 116.048 303.168 118.878 305.69C119.675 306.401 120.646 306.937 121.704 307.292C122.851 307.678 123.855 308.243 124.647 308.94C125.428 309.644 125.998 310.483 126.308 311.396C126.595 312.239 127.132 313.049 127.93 313.759C130.759 316.281 135.958 316.756 139.141 314.483C141.72 312.642 141.246 311.038 140.933 309.478C140.641 308.02 141.077 306.545 142.113 305.291C143.948 303.071 143.594 300.304 141.413 298.359C139.232 296.416 135.657 295.682 132.427 296.658Z" fill="black" fill-opacity="0.05"/>
<path d="M149.845 294.776C146.396 295.914 144.567 298.385 145.674 300.153C146.782 301.921 150.444 302.379 153.855 301.177C157.265 299.976 158.535 296.798 158.025 295.801C157.092 293.978 152.472 293.91 149.845 294.776Z" fill="black" fill-opacity="0.05"/>
<path d="M148.472 306.016C145.456 306.461 143.167 307.822 143.435 309.402C143.702 310.982 146.391 312.028 149.439 311.738C152.488 311.447 154.639 309.442 154.476 308.351C154.239 306.768 150.45 305.723 148.472 306.016Z" fill="black" fill-opacity="0.05"/>
<path d="M31.2555 320.3C34.2209 321.575 37.577 321.363 38.7513 319.826C39.9256 318.289 38.5152 315.954 35.5089 314.735C33.2193 313.807 29.0359 313.613 28.014 315.21C27.4552 316.083 28.2911 319.026 31.2555 320.3Z" fill="black" fill-opacity="0.05"/>
<path d="M35.6511 324.971C33.8909 324.597 30.363 325.332 29.9934 326.75C29.7384 327.727 31.4857 329.659 34.2135 330.09C36.9414 330.521 39.474 329.724 39.8713 328.31C40.2676 326.897 38.3334 325.54 35.6511 324.971Z" fill="black" fill-opacity="0.05"/>
<path d="M56.1567 317.933C54.4227 318.246 52.6114 318.066 51.0201 317.461C48.2016 316.392 44.8951 316.848 42.7238 318.478C40.5525 320.108 39.9472 322.588 41.3756 324.701C42.182 325.894 42.4237 327.252 42.0094 328.553C41.5657 329.945 40.9723 331.367 43.1119 333.18C45.7536 335.419 50.5004 335.292 53.318 333.177C54.1111 332.581 54.6809 331.881 55.0266 331.136C55.4013 330.329 56.003 329.603 56.7818 329.013C57.569 328.428 58.5356 327.976 59.6114 327.695C60.6043 327.435 61.5373 327.007 62.3314 326.411C65.1485 324.296 65.3133 320.736 62.3268 318.756C59.9074 317.153 58.0118 317.6 56.1567 317.933Z" fill="black" fill-opacity="0.05"/>
<path d="M38.3464 307.424C36.2226 308.198 36.502 311.335 37.7522 313.048C39.3932 315.296 42.5132 316.342 44.5556 315.453C46.599 314.565 46.865 312.046 45.1499 309.829C43.4357 307.612 39.5078 307 38.3464 307.424Z" fill="black" fill-opacity="0.05"/>
<path d="M53.7445 308.846C51.8558 309.13 50.8928 311.78 51.3996 313.097C52.1725 315.106 53.9917 316.551 55.8739 316.246C57.7561 315.941 58.8061 314.037 58.2178 311.994C57.6304 309.95 55.0453 308.65 53.7445 308.846Z" fill="black" fill-opacity="0.05"/>
<path d="M22.7028 204.565C26.4414 203.647 28.1708 199.58 26.2665 195.556C24.8151 192.492 19.9303 188.751 16.2901 189.871C14.3002 190.483 10.956 194.822 12.7273 198.88C14.4972 202.938 18.9641 205.483 22.7028 204.565Z" fill="black" fill-opacity="0.05"/>
<path d="M11.4627 215.991C14.0561 214.575 13.6814 211.278 11.2109 208.329C9.58965 206.395 4.13262 204.353 1.56683 205.797C-0.201696 206.792 -0.914724 210.643 1.8177 213.458C4.55105 216.274 8.86879 217.408 11.4627 215.991Z" fill="black" fill-opacity="0.05"/>
<path d="M36.7946 231.755C38.4103 232.264 40.2005 232.515 42.0684 232.443C48.6983 232.185 54.1986 227.919 53.4492 222.972C52.8421 218.964 49.8326 217.931 47.0426 216.791C44.4326 215.726 42.4606 213.988 41.3913 211.909C39.4971 208.228 34.7292 206.025 29.6183 206.224C24.5079 206.423 20.0695 208.984 18.6937 212.793C17.9171 214.944 16.1946 216.825 13.7467 218.088C11.1284 219.438 8.27859 220.699 8.22704 224.733C8.16489 229.712 14.2249 233.527 20.8548 233.269C22.7233 233.196 24.4688 232.807 26.0058 232.175C27.6698 231.49 29.4926 231.096 31.3344 231.017C33.177 230.953 35.0454 231.203 36.7946 231.755Z" fill="black" fill-opacity="0.05"/>
<path d="M36.3808 204.011C40.2295 204.621 44.3042 201.729 45.4821 197.552C46.6596 193.375 42.7124 189.332 40.6456 188.884C36.8664 188.065 32.5468 192.178 31.5443 195.342C30.2282 199.496 32.5321 203.4 36.3808 204.011Z" fill="black" fill-opacity="0.05"/>
<path d="M49.194 214.462C51.9762 215.661 56.1056 214.184 58.4183 211.165C60.7309 208.145 59.4687 204.374 57.5681 203.528C54.8089 202.299 49.6769 204.771 48.3429 206.825C46.3106 209.956 46.4119 213.264 49.194 214.462Z" fill="black" fill-opacity="0.05"/>
</svg>
