<svg width="24" height="25" viewBox="0 0 24 25" fill="none" xmlns="http://www.w3.org/2000/svg">
<path d="M23.9921 12.0629C23.9921 18.1237 19.5008 23.1342 13.6663 23.9473C13.1208 24.023 12.5626 24.0625 11.996 24.0625C11.3421 24.0625 10.6999 24.0104 10.0745 23.9095C4.36266 22.9896 0 18.0354 0 12.0629C0 5.43544 5.37136 0.0625 11.9969 0.0625C18.6224 0.0625 23.9938 5.43544 23.9938 12.0629H23.9921Z" fill="black"/>
<path d="M13.6662 9.69838V12.3125H16.8991L16.3872 15.834H13.6662V23.9472C13.1206 24.0229 12.5625 24.0624 11.9959 24.0624C11.342 24.0624 10.6997 24.0103 10.0743 23.9094V15.834H7.09277V12.3125H10.0743V9.114C10.0743 7.12963 11.6824 5.52026 13.667 5.52026V5.52195C13.6729 5.52195 13.6779 5.52026 13.6838 5.52026H16.8999V8.56578H14.7985C14.1739 8.56578 13.667 9.0728 13.667 9.69754L13.6662 9.69838Z" fill="white"/>
</svg>
