<svg width="24" height="25" viewBox="0 0 24 25" fill="none" xmlns="http://www.w3.org/2000/svg">
<path d="M12.0179 0.0625H11.9633C5.35291 0.0625 -0.00585938 5.42285 -0.00585938 12.0352V12.0898C-0.00585938 18.7022 5.35291 24.0625 11.9633 24.0625H12.0179C18.6283 24.0625 23.9871 18.7022 23.9871 12.0898V12.0352C23.9871 5.42285 18.6283 0.0625 12.0179 0.0625Z" fill="black"/>
<path d="M15.7023 4.94507H8.2782C6.22716 4.94507 4.55859 6.61413 4.55859 8.66577V15.4597C4.55859 17.5114 6.22716 19.1804 8.2782 19.1804H15.7023C17.7533 19.1804 19.4219 17.5114 19.4219 15.4597V8.66577C19.4219 6.61413 17.7533 4.94507 15.7023 4.94507ZM5.87075 8.66577C5.87075 7.33809 6.95091 6.25761 8.2782 6.25761H15.7023C17.0296 6.25761 18.1097 7.33809 18.1097 8.66577V15.4597C18.1097 16.7874 17.0296 17.8679 15.7023 17.8679H8.2782C6.95091 17.8679 5.87075 16.7874 5.87075 15.4597V8.66577Z" fill="white"/>
<path d="M11.9901 15.5228C13.8974 15.5228 15.45 13.9707 15.45 12.062C15.45 10.1533 13.8983 8.60107 11.9901 8.60107C10.082 8.60107 8.53027 10.1533 8.53027 12.062C8.53027 13.9707 10.082 15.5228 11.9901 15.5228ZM11.9901 9.91446C13.1745 9.91446 14.1378 10.8781 14.1378 12.0628C14.1378 13.2475 13.1745 14.2111 11.9901 14.2111C10.8058 14.2111 9.84243 13.2475 9.84243 12.0628C9.84243 10.8781 10.8058 9.91446 11.9901 9.91446Z" fill="white"/>
<path d="M15.7701 9.16015C16.2837 9.16015 16.7023 8.74225 16.7023 8.22766C16.7023 7.71306 16.2845 7.29517 15.7701 7.29517C15.2557 7.29517 14.8379 7.71306 14.8379 8.22766C14.8379 8.74225 15.2557 9.16015 15.7701 9.16015Z" fill="white"/>
</svg>
