<svg width="24" height="24" viewBox="0 0 24 24" fill="none" xmlns="http://www.w3.org/2000/svg">
<path d="M22.0014 16.92V19.92C22.0025 20.1985 21.9455 20.4741 21.8339 20.7293C21.7223 20.9845 21.5587 21.2136 21.3535 21.4018C21.1483 21.5901 20.906 21.7335 20.6421 21.8227C20.3783 21.9119 20.0988 21.945 19.8214 21.92C16.7442 21.5856 13.7884 20.5341 11.1914 18.85C8.77523 17.3146 6.72673 15.2661 5.1914 12.85C3.50138 10.2412 2.44964 7.27097 2.1214 4.17997C2.09641 3.90344 2.12927 3.62474 2.2179 3.3616C2.30652 3.09846 2.44897 2.85666 2.63616 2.6516C2.82336 2.44653 3.0512 2.28268 3.30519 2.1705C3.55917 2.05831 3.83374 2.00024 4.1114 1.99997H7.1114C7.5967 1.9952 8.06719 2.16705 8.43516 2.48351C8.80313 2.79996 9.04348 3.23942 9.1114 3.71997C9.23802 4.68004 9.47285 5.6227 9.8114 6.52997C9.94594 6.8879 9.97506 7.27689 9.8953 7.65086C9.81555 8.02482 9.63026 8.36809 9.3614 8.63998L8.0914 9.90997C9.51495 12.4135 11.5879 14.4864 14.0914 15.91L15.3614 14.64C15.6333 14.3711 15.9766 14.1858 16.3505 14.1061C16.7245 14.0263 17.1135 14.0554 17.4714 14.19C18.3787 14.5285 19.3213 14.7634 20.2814 14.89C20.7672 14.9585 21.2108 15.2032 21.5279 15.5775C21.8451 15.9518 22.0136 16.4296 22.0014 16.92Z" stroke="white" stroke-width="2" stroke-linecap="round" stroke-linejoin="round"/>
</svg>
