<svg width="263" height="26" viewBox="0 0 263 26" fill="none" xmlns="http://www.w3.org/2000/svg">
<g clip-path="url(#clip0_1_4231)">
<path opacity="0.8" fill-rule="evenodd" clip-rule="evenodd" d="M104.123 16.8521C104.123 17.1288 104.032 17.3133 103.849 17.4056C103.667 17.4978 103.393 17.5901 103.119 17.4978H101.385V16.1141H103.211C103.484 16.1141 103.667 16.1141 103.941 16.2063C104.032 16.3908 104.123 16.5753 104.123 16.8521ZM96.7314 16.1141H94.9063V17.6823H96.8227C97.3702 17.6823 97.7353 17.4056 97.7353 16.8521C97.644 16.3908 97.279 16.1141 96.7314 16.1141ZM123.652 17.1288C124.2 17.6823 124.382 18.4203 124.382 19.1583C124.382 21.0034 123.196 22.1104 121.097 22.1104H118.268C117.903 22.1104 117.538 21.8336 117.355 21.4646C116.717 21.9259 115.986 22.1104 115.165 22.1104H112.336C112.154 22.1104 112.062 22.1104 111.88 22.0181C111.789 22.1104 111.606 22.1104 111.424 22.1104H106.587C106.405 22.1104 106.313 22.1104 106.131 22.0181C105.948 22.1104 105.857 22.1104 105.675 22.1104H104.214C103.667 22.1104 103.211 21.6491 103.211 21.0956V19.8041H102.389V21.0034C102.389 21.5569 101.933 22.0181 101.385 22.0181H99.9254C99.3779 22.0181 98.9216 21.5569 98.9216 21.0034V19.4351C98.2828 19.8041 97.4615 19.9886 96.7314 19.9886H95.9101V21.0034C95.9101 21.5569 95.4538 22.0181 94.9063 22.0181H92.0774C91.8036 22.0181 91.5298 21.9259 91.3473 21.6491L90.2523 20.4499L89.1572 21.6491C88.9747 21.8336 88.7009 22.0181 88.4271 22.0181H82.678C82.1305 22.0181 81.6742 21.5569 81.6742 21.0034V14.8226C81.6742 14.269 82.1305 13.8078 82.678 13.8078H88.5184C88.7922 13.8078 89.0659 13.9 89.2484 14.1768L90.3435 15.3761L91.4386 14.1768C91.6211 13.9923 91.8949 13.8078 92.1686 13.8078H96.8227C97.644 13.8078 98.374 13.9923 99.1041 14.3613C99.2866 13.9923 99.6516 13.8078 100.017 13.8078H103.393C104.123 13.7155 104.944 13.9 105.583 14.1768C105.675 14.1768 105.675 14.269 105.766 14.3613C105.948 13.9923 106.313 13.8078 106.678 13.8078H111.515C111.88 13.8078 112.245 13.9923 112.336 14.3613C112.884 13.9923 113.614 13.8078 114.253 13.8078H117.173C117.629 13.8078 117.994 14.0845 118.085 14.4536C118.724 13.9923 119.454 13.7155 120.184 13.8078H123.104C123.652 13.8078 124.108 14.269 124.108 14.8226V16.1141C124.108 16.5753 123.926 16.8521 123.652 17.1288C123.652 17.0366 123.652 17.0366 123.652 17.1288ZM99.1953 16.9443C99.1953 15.1916 97.9178 14.9148 96.7314 14.9148H92.0774L90.2523 16.9443L88.4271 14.9148H82.5867V21.0956H88.3359L90.161 19.0661L91.9861 21.0956H94.8151V19.0661H96.6402C97.9178 18.9738 99.1953 18.6048 99.1953 16.9443ZM104.762 18.1436C105.401 17.8668 105.857 17.2211 105.766 16.4831C105.766 15.9296 105.492 15.3761 105.036 15.0993C104.488 14.8226 103.849 14.7303 103.302 14.8226H99.9254V21.0034H101.385V18.7893H102.937C103.484 18.7893 103.758 18.8816 104.032 19.0661C104.306 19.3428 104.306 19.8964 104.306 20.2654V21.0034H105.766V19.8041C105.766 19.4351 105.766 18.9738 105.492 18.6971C105.218 18.4203 105.036 18.3281 104.762 18.1436ZM111.424 14.9148H106.587V21.0956H111.424V19.8041H108.047V18.5126H111.332V17.2211H108.047V16.1141H111.424V14.9148ZM117.447 19.0661C117.447 18.6048 117.355 18.1436 116.99 17.7746C116.534 17.4056 115.895 17.2211 115.348 17.3133H114.526C114.344 17.3133 114.161 17.3133 113.979 17.2211C113.705 17.1288 113.614 16.8521 113.705 16.5753C113.705 16.4831 113.796 16.3908 113.888 16.3908C114.07 16.2986 114.253 16.2986 114.435 16.2986H117.082V15.0071H114.161C112.61 15.0071 112.062 15.9296 112.062 16.8521C112.062 18.7893 113.796 18.6971 115.165 18.7893C115.348 18.7893 115.53 18.7893 115.713 18.8816C115.804 18.9738 115.895 19.1583 115.895 19.2506C115.895 19.4351 115.804 19.5274 115.713 19.6196C115.53 19.7119 115.348 19.8041 115.165 19.8041H112.336V21.0956H115.165C116.625 21.0956 117.447 20.4499 117.447 19.0661ZM123.378 19.0661C123.378 18.6048 123.287 18.1436 122.922 17.7746C122.466 17.4056 121.827 17.2211 121.279 17.3133H120.458C120.275 17.3133 120.093 17.3133 119.91 17.2211C119.637 17.1288 119.545 16.8521 119.637 16.5753C119.637 16.4831 119.728 16.3908 119.819 16.3908C120.002 16.2986 120.184 16.2986 120.367 16.2986H123.013V15.0071H120.093C118.542 15.0071 117.994 15.9296 117.994 16.8521C117.994 18.7893 119.728 18.6971 121.097 18.7893C121.279 18.7893 121.462 18.7893 121.644 18.8816C121.736 18.9738 121.827 19.1583 121.827 19.2506C121.827 19.4351 121.736 19.5274 121.644 19.6196C121.462 19.7119 121.279 19.8041 121.097 19.8041H118.268V21.0956H121.097C122.557 21.0956 123.378 20.4499 123.378 19.0661ZM109.234 5.32071L108.23 7.81148H110.237L109.234 5.32071ZM97.644 6.79672C97.8265 6.70447 97.9178 6.42772 97.9178 6.24322C97.9178 6.05872 97.8265 5.78196 97.644 5.68971C97.4615 5.59746 97.1877 5.59746 96.9139 5.59746H95.0888V6.98123H96.8227C97.1877 6.98123 97.3702 6.88898 97.644 6.79672ZM93.4462 20.4499V15.4683L91.1648 17.8668L93.4462 20.4499ZM81.8567 11.5015C81.4917 11.5015 81.1266 11.2248 80.9441 10.8558L80.7616 10.3945C80.7616 10.948 80.3053 11.4093 79.7578 11.4093H76.8376C76.4726 11.4093 76.1076 11.1325 75.925 10.7635L75.6513 10.0255H74.0087L73.7349 10.7635C73.5524 11.1325 73.1874 11.4093 72.8223 11.4093H71.271C70.7234 11.4093 70.2672 10.948 70.2672 10.3945C70.2672 10.3023 70.2672 10.1178 70.3584 10.0255L73.0049 3.8447C73.1874 3.47569 73.5524 3.19894 73.9174 3.19894H75.7425C76.1076 3.19894 76.4726 3.47569 76.6551 3.8447L77.2026 5.13621V4.2137C77.2026 3.66019 77.6589 3.19894 78.2065 3.19894H80.5791C80.9441 3.19894 81.3092 3.47569 81.4917 3.75244L82.4042 5.87422L83.2255 3.8447C83.408 3.47569 83.7731 3.19894 84.1381 3.19894H86.6933C86.8758 3.19894 87.0583 3.29119 87.2408 3.38344C87.4233 3.29119 87.6058 3.19894 87.7883 3.19894H92.6249C92.8074 3.19894 92.9899 3.29119 93.1724 3.38344C93.355 3.29119 93.5375 3.19894 93.72 3.19894H97.0965C97.9178 3.10669 98.6478 3.29119 99.3779 3.66019C99.4691 3.66019 99.4691 3.75244 99.5604 3.8447C99.7429 3.47569 100.108 3.29119 100.473 3.29119H101.933C102.389 3.29119 102.846 3.66019 102.937 4.12145C103.667 3.47569 104.671 3.19894 105.675 3.29119H107.043C107.226 3.29119 107.5 3.38344 107.682 3.47569C107.865 3.38344 108.047 3.29119 108.321 3.29119H110.511C110.876 3.29119 111.241 3.56794 111.424 3.93695L111.971 5.22846V4.30595C111.971 3.75244 112.427 3.29119 112.975 3.29119H115.165C115.53 3.29119 115.804 3.47569 115.986 3.75244L116.717 4.95171V4.30595C116.717 3.75244 117.173 3.29119 117.72 3.29119H119.18C119.728 3.29119 120.184 3.75244 120.184 4.30595V10.4868C120.184 11.0403 119.728 11.5015 119.18 11.5015H117.082C116.717 11.5015 116.443 11.317 116.26 11.0403L115.348 9.56425V10.579C115.348 11.1325 114.891 11.5938 114.344 11.5938H111.332C110.967 11.5938 110.602 11.317 110.42 10.948L110.146 10.21H108.503L108.23 10.948C108.047 11.317 107.682 11.5938 107.317 11.5938H105.583C104.671 11.5938 103.667 11.317 102.937 10.7635C102.846 11.2248 102.481 11.5938 101.933 11.5938H100.382C100.199 11.5938 100.108 11.5938 99.9254 11.5015C99.7429 11.5938 99.6516 11.5938 99.4691 11.5938H98.009C97.4615 11.5938 97.0052 11.1325 97.0052 10.579V9.472H96.1839V10.6713C96.1839 11.2248 95.7276 11.686 95.1801 11.686H93.72C93.5375 11.686 93.355 11.5938 93.1724 11.5015C92.9899 11.5938 92.8074 11.686 92.6249 11.686H87.7883C87.6058 11.686 87.4233 11.5938 87.2408 11.5015C87.0583 11.5938 86.8758 11.686 86.6933 11.686H85.2332C84.6856 11.686 84.2294 11.2248 84.2294 10.6713L84.0468 11.1325C83.8643 11.5015 83.4993 11.7783 83.1343 11.7783L81.8567 11.5015ZM102.572 7.44248C102.481 8.27274 102.754 9.19525 103.393 9.74875C104.032 10.21 104.762 10.4868 105.492 10.3945H107.226L107.773 9.01075H110.785L111.332 10.3945H114.253V5.78196L116.99 10.3945H119.089V4.30595H117.629V8.54949L115.074 4.30595H112.884V10.1178L110.42 4.30595H108.23L106.131 9.103H105.492C105.127 9.103 104.762 9.01075 104.488 8.82624C104.214 8.36499 104.032 7.90374 104.123 7.35023C104.123 6.88898 104.214 6.33547 104.579 5.96647C104.853 5.68971 105.31 5.50521 105.675 5.59746H107.043V4.30595H105.675C104.853 4.2137 104.032 4.49045 103.484 5.04396C102.754 5.68971 102.481 6.51997 102.572 7.44248ZM105.583 6.61222C105.218 6.61222 105.218 6.61222 105.127 6.70447C105.036 6.88898 105.036 7.16573 105.036 7.35023C105.036 7.62698 105.036 7.81148 105.127 8.08824H105.401L106.04 6.61222H105.583ZM100.382 4.30595V10.4868H101.842V4.30595H100.382ZM93.6287 10.4868H95.0888V8.18049H96.6402C97.0052 8.08824 97.3702 8.18049 97.7353 8.45724C97.9178 8.82625 98.009 9.2875 98.009 9.6565V10.3945H99.4691V9.19525C99.5604 8.82624 99.4691 8.36499 99.1953 8.08824C99.0128 7.81148 98.7391 7.71923 98.4653 7.53473C99.1041 7.25798 99.4691 6.61222 99.4691 5.87422C99.4691 5.32071 99.1953 4.7672 98.7391 4.49045C98.1915 4.2137 97.5527 4.12145 97.0052 4.2137H93.6287V10.4868ZM87.7883 4.30595V10.4868H92.6249V9.19525H89.2484V7.90374H92.5337V6.70447H89.2484V5.59746H92.6249V4.30595H87.7883ZM81.8567 10.4868H83.1343L85.2332 5.59746V10.3945H86.6933V4.30595H84.2294L82.4955 8.45724L80.5791 4.30595H78.2065V10.1178L75.7425 4.30595H73.5524L70.906 10.4868H72.4573L73.0049 9.103H76.0163L76.5638 10.4868H79.484V5.59746L81.8567 10.4868ZM84.0468 16.2063V17.3133H87.2408V18.5126H84.0468V19.7119H87.6058L89.2484 17.8668L87.6971 16.1141H84.0468V16.2063ZM73.6436 7.81148H75.6513L74.6475 5.32071L73.6436 7.81148ZM166.086 17.1288C164.9 16.1141 163.987 14.9148 163.348 13.531C163.075 12.8853 162.801 12.1473 162.618 11.4093C162.436 10.6713 162.345 9.84101 162.436 9.103C162.527 6.42772 163.622 3.93695 165.447 2.09193L165.904 1.63067L165.995 1.53842C164.717 0.615913 163.166 0.154659 161.615 0.0624076C156.504 -0.306596 152.124 3.56794 151.668 8.64174V9.37975C151.668 11.2248 152.215 12.9775 153.219 14.5458C156.139 18.7893 161.797 19.9886 166.086 17.1288ZM167.82 23.6786V23.9554H165.995C165.995 24.3244 166.36 24.6012 166.725 24.6012C166.999 24.6012 167.272 24.5089 167.455 24.3244L167.729 24.6934C167.455 24.9702 167.09 25.0624 166.725 25.0624C165.995 25.0624 165.447 24.5089 165.447 23.7709C165.447 23.0329 165.995 22.4794 166.725 22.4794C167.272 22.4794 167.82 23.0329 167.82 23.6786ZM167.272 23.5864C167.272 23.2174 166.999 22.9406 166.634 23.0329C166.269 23.0329 165.995 23.3096 165.995 23.5864H167.272ZM171.379 22.9406C171.653 22.9406 171.835 23.0329 172.018 23.1251L172.291 22.6639C172.018 22.4794 171.744 22.3871 171.379 22.3871H171.288C170.649 22.3871 170.101 23.0329 170.101 23.6786V23.7709C170.101 24.4167 170.74 24.9702 171.379 24.9702C171.653 24.9702 172.018 24.8779 172.291 24.6934L172.018 24.2321C171.835 24.4167 171.653 24.4167 171.379 24.4167C171.014 24.4167 170.649 24.0476 170.649 23.6786C170.558 23.4019 170.923 23.0329 171.379 22.9406ZM169.554 22.4794C169.28 22.4794 169.006 22.5716 168.915 22.8484V22.5716H168.367V24.9702H168.915V23.5864C168.915 23.2174 169.097 22.9406 169.463 22.9406C169.554 22.9406 169.645 22.9406 169.828 23.0329L170.01 22.5716C169.828 22.4794 169.645 22.4794 169.554 22.4794ZM176.215 22.8484V22.5716H175.668V24.9702H176.215V23.5864C176.215 23.2174 176.398 22.9406 176.763 22.9406C176.854 22.9406 176.946 22.9406 177.128 23.0329L177.311 22.5716C177.219 22.5716 177.037 22.4794 176.946 22.4794C176.58 22.4794 176.398 22.5716 176.215 22.8484ZM179.409 21.5569H179.957V24.9702H179.409V24.6934C179.227 24.9702 178.953 25.0624 178.679 25.0624C177.949 25.0624 177.402 24.5089 177.402 23.7709C177.402 23.0329 177.949 22.4794 178.679 22.4794C178.953 22.4794 179.227 22.5716 179.409 22.8484V21.5569ZM179.409 23.8631C179.409 23.4941 179.136 23.1251 178.679 23.0329C178.314 23.0329 177.949 23.3096 177.949 23.7709C177.949 24.1399 178.223 24.5089 178.679 24.6012C179.044 24.6012 179.409 24.2321 179.409 23.8631ZM174.482 22.5716H175.029V24.9702H174.482V24.6934C174.299 24.9702 174.025 25.0624 173.752 25.0624C173.021 25.0624 172.474 24.5089 172.474 23.7709C172.474 23.0329 173.021 22.4794 173.752 22.4794C174.025 22.4794 174.299 22.5716 174.482 22.8484V22.5716ZM174.482 23.8631C174.482 23.4941 174.208 23.1251 173.752 23.0329C173.387 23.0329 173.022 23.3096 173.022 23.7709C173.022 24.1399 173.295 24.5089 173.752 24.6012C174.117 24.6012 174.482 24.2321 174.482 23.8631ZM167.272 1.63067C167.272 1.63067 167.272 1.72292 167.364 1.81518C168.459 2.73768 169.371 3.93695 170.01 5.32071C170.74 6.98123 171.014 8.82624 170.831 10.579C170.74 11.4093 170.558 12.2395 170.284 12.9775C169.828 14.1768 169.189 15.1916 168.367 16.1141C168.094 16.4831 167.729 16.7598 167.364 17.1288L167.272 17.2211C170.375 19.2506 174.39 19.2506 177.402 17.2211C181.691 14.3613 182.786 8.64174 180.048 4.30595C177.219 -0.0298431 171.47 -1.22911 167.272 1.63067ZM164.535 24.5089C164.261 24.5089 164.17 24.3244 164.17 24.1399V23.0329H164.991V22.5716H164.17V21.8336H163.622V22.5716H163.166V23.0329H163.622V24.1399C163.622 24.6934 163.805 25.0624 164.443 25.0624C164.717 25.0624 164.9 24.9702 165.082 24.8779L164.9 24.4167C164.808 24.5089 164.626 24.5089 164.535 24.5089ZM163.075 9.37975C163.075 12.2395 164.352 15.0071 166.634 16.7598C166.634 16.7598 166.725 16.7598 166.725 16.6676C168.824 14.9148 170.101 12.3318 170.193 9.56425C170.193 9.01075 170.193 8.36499 170.01 7.81148C169.828 6.98123 169.645 6.15097 169.189 5.32071C168.641 4.12145 167.729 3.01444 166.725 2.09193C166.725 2.09193 166.634 1.99968 166.542 1.99968C164.443 3.8447 163.075 6.51997 163.075 9.37975ZM159.516 22.5716H160.063V24.9702H159.516V24.6934C159.333 24.9702 159.059 25.0624 158.786 25.0624C158.056 25.0624 157.508 24.5089 157.508 23.7709C157.508 23.0329 158.056 22.4794 158.786 22.4794C159.059 22.4794 159.333 22.5716 159.516 22.8484V22.5716ZM159.607 23.8631C159.607 23.4941 159.333 23.1251 158.877 23.0329C158.512 23.0329 158.147 23.3096 158.147 23.7709C158.147 24.1399 158.421 24.5089 158.877 24.6012C159.242 24.6012 159.607 24.2321 159.607 23.8631ZM157.143 23.3096C157.143 22.8484 156.687 22.3871 156.23 22.4794C155.865 22.4794 155.592 22.6639 155.409 22.9406C155.227 22.6639 154.953 22.4794 154.588 22.4794C154.314 22.4794 154.04 22.5716 153.858 22.8484V22.5716H153.31V24.9702H153.858V23.4941C153.858 23.2174 154.132 22.9406 154.497 22.9406C154.862 22.9406 155.044 23.1251 155.044 23.5864V24.9702H155.592V23.4941C155.592 23.2174 155.865 22.9406 156.23 22.9406C156.595 22.9406 156.778 23.1251 156.778 23.5864V24.9702H157.325V23.4019C157.143 23.4019 157.143 23.4019 157.143 23.3096ZM161.888 23.4941H161.615C161.341 23.4941 161.158 23.4019 161.158 23.2174C161.158 23.0329 161.341 22.9406 161.615 22.9406C161.888 22.9406 162.162 23.0329 162.345 23.1251L162.618 22.6639C162.345 22.4794 161.98 22.3871 161.615 22.3871C160.976 22.3871 160.611 22.6639 160.611 23.2174C160.611 23.5864 160.884 23.8631 161.432 23.9554H161.706C161.98 23.9554 162.162 24.0476 162.162 24.2321C162.162 24.4167 161.98 24.5089 161.615 24.5089C161.341 24.5089 161.067 24.4167 160.793 24.2321L160.519 24.6934C160.793 24.8779 161.158 25.0624 161.615 24.9702C162.345 24.9702 162.71 24.6012 162.71 24.1399C162.801 23.8631 162.436 23.5864 161.888 23.4941ZM260.262 6.42772H260.719V7.71923H260.992V6.42772H261.449V6.24322H260.262V6.42772ZM262.726 6.15097L262.361 7.16573C262.27 7.35023 262.27 7.35023 262.27 7.44248C262.179 7.35023 262.179 7.35023 262.179 7.25798L261.814 6.24322H261.54V7.62698H261.631V6.33547L262.087 7.62698H262.361L262.817 6.33547V7.62698H263V6.15097H262.726ZM234.528 8.45724L231.699 13.4388L231.243 8.45724H228.414L229.6 17.2211L227.593 21.0034H230.787L237.54 8.45724H234.528ZM227.228 11.5938L225.95 17.4056H223.121L223.304 16.3908C221.844 17.9591 218.011 17.8668 218.65 14.3613C219.106 12.2395 221.205 11.5938 224.307 11.5938C224.49 10.579 223.851 10.3945 222.847 10.3945C221.935 10.4868 221.022 10.6713 220.11 11.0403L220.383 9.01075C221.387 8.73399 222.482 8.54949 223.577 8.45724C225.494 8.36499 227.684 9.19525 227.228 11.5938ZM223.942 13.9H223.212C222.665 13.9 221.844 13.9 221.57 14.4536C221.113 15.1916 221.661 15.5606 222.3 15.5606C223.03 15.4683 223.577 15.1916 223.76 14.4536C223.76 14.1768 223.851 13.8078 223.942 13.9ZM219.38 10.3023C219.015 12.424 217.189 13.9 215.091 13.8078H212.9L212.079 17.4056H208.976L211.258 5.78196H216.551C218.011 5.78196 219.927 7.71923 219.38 10.3023ZM216.459 9.84101C216.642 9.2875 216.368 8.73399 215.821 8.54949C215.638 8.45724 215.547 8.45724 215.364 8.45724H213.904L213.265 11.1325H214.726C215.547 11.1325 216.277 10.579 216.459 9.84101ZM254.787 11.5938L253.509 17.4056H250.68L250.863 16.3908C249.403 17.9591 245.479 17.8668 246.118 14.3613C246.574 12.2395 248.673 11.5938 251.867 11.5938C252.049 10.579 251.41 10.3945 250.407 10.3945C249.494 10.4868 248.582 10.6713 247.669 11.0403L247.943 9.01075C249.038 8.73399 250.133 8.54949 251.228 8.45724C253.053 8.36499 255.152 9.19525 254.787 11.5938ZM251.502 13.9H250.772C250.133 13.9 249.312 13.9 249.038 14.4536C248.673 15.1916 249.22 15.5606 249.859 15.5606C250.589 15.4683 251.228 15.1916 251.319 14.4536C251.319 14.1768 251.41 13.8078 251.502 13.9ZM246.848 10.3023C246.483 12.424 244.658 13.9 242.559 13.8078H240.368L239.547 17.4056H236.444L238.726 5.78196H243.927C245.479 5.78196 247.304 7.71923 246.848 10.3023ZM243.836 9.84101C244.019 9.2875 243.745 8.73399 243.197 8.54949C243.015 8.45724 242.924 8.45724 242.741 8.45724H241.281L240.642 11.1325H242.011C242.924 11.1325 243.654 10.579 243.836 9.84101ZM254.878 17.4056H257.707L260.08 5.78196H257.16L254.878 17.4056ZM42.6166 16.9443C42.4341 17.0366 42.4341 17.0366 42.3428 17.0366H39.4226C39.3314 16.3908 39.1489 15.7451 39.0576 15.1916C39.0576 15.0993 39.0576 15.0993 38.9663 15.0993H34.6773C34.5861 15.0993 34.5861 15.0993 34.5861 15.1916C34.5861 15.2838 34.4948 15.4683 34.4948 15.5606C34.4035 15.8373 34.3123 16.1141 34.221 16.2986C34.1298 16.5753 34.0385 16.7598 33.9473 17.0366C33.9473 17.1288 33.856 17.1288 33.856 17.1288H30.297V17.0366C30.4795 16.4831 30.7533 15.9296 30.9358 15.3761C31.1183 14.9148 31.3008 14.4536 31.4833 14.0845L31.9396 12.9775C31.9396 12.8853 32.0309 12.793 32.0309 12.793L32.4872 11.686C32.5784 11.5015 32.6697 11.317 32.6697 11.1325L33.0347 10.3023C33.0347 10.21 33.0347 10.21 33.126 10.1178L33.5822 8.9185C33.5822 8.9185 33.5822 8.82624 33.6735 8.82624L34.1298 7.81148C34.1298 7.71923 34.221 7.62698 34.221 7.53473L34.6773 6.42772C34.6773 6.33547 34.7686 6.33547 34.7686 6.24322L35.4074 4.67495C35.4986 4.30595 35.7724 4.0292 36.0461 3.8447H36.1374C36.3199 3.75244 36.5937 3.66019 36.8675 3.66019H39.9702C40.0614 3.66019 40.0614 3.66019 40.0614 3.75244C40.4264 5.32071 40.7002 6.98123 41.0652 8.54949L42.1603 14.0845C42.2516 14.5458 42.3428 14.9148 42.4341 15.3761C42.4341 15.7451 42.5253 16.2986 42.6166 16.9443ZM38.4188 12.2395C38.3275 12.055 38.3275 11.7783 38.2363 11.5938C37.9625 10.3945 37.6888 9.103 37.5062 7.90374V7.62698C37.5062 7.44248 37.415 7.35023 37.415 7.25798C37.2325 7.71923 37.1412 8.08824 36.9587 8.54949V8.73399L36.4112 10.3945V10.579C36.3199 10.8558 36.1374 11.2248 36.0461 11.5015V11.686C35.9549 11.8705 35.9549 12.055 35.8636 12.2395C35.8636 12.3318 35.8636 12.3318 35.9549 12.3318H38.4188C38.3275 12.1473 38.4188 12.1473 38.4188 12.2395ZM14.966 6.33547C15.0573 6.15097 15.1485 5.96647 15.1485 5.87422C15.331 5.59746 15.4223 5.32071 15.5135 5.04396C15.6048 4.95171 15.6048 4.85946 15.696 4.67495C15.696 4.5827 15.7873 4.49045 15.7873 4.3982L16.1523 3.47569H12.5021L12.4108 3.75244L12.1371 4.30595C12.1371 4.67495 11.9545 4.95171 11.8633 5.22846C11.772 5.50521 11.5895 5.78196 11.4983 6.05872C11.407 6.33547 11.3158 6.61222 11.2245 6.79672L10.677 8.18049C10.677 8.27274 10.5857 8.36499 10.5857 8.45724L10.2207 9.472L9.67314 10.8558C9.67314 10.948 9.58189 10.948 9.58189 11.0403L9.12561 12.3318L9.03435 12.6085V12.5163C8.94309 12.2395 8.94309 11.8705 8.85184 11.5938C8.76058 11.317 8.76058 11.1325 8.66933 10.8558V10.7635L8.48681 9.6565L7.93928 6.88898C7.75677 6.33547 7.66551 5.59746 7.483 4.85946C7.39174 4.0292 6.75295 3.47569 5.93164 3.47569H0.0912561C0.0912561 3.66019 0 3.75244 0 3.8447V3.93695L0.547536 4.0292C1.00382 4.12145 1.4601 4.30595 1.91638 4.3982L2.2814 4.5827C2.73768 4.7672 3.19396 4.95171 3.55899 5.13621C3.65024 5.22846 3.83276 5.32071 3.92401 5.50521C4.01527 5.68971 4.19778 5.96647 4.19778 6.24322C4.38029 6.98123 4.5628 7.71923 4.83657 8.54949L6.29667 14.0845C6.57044 15.0071 6.75295 15.9296 7.02672 16.8521C7.02672 16.8521 7.02672 16.9443 7.11797 16.9443H10.7682C10.7682 16.8521 10.8595 16.7598 10.8595 16.5753C10.9507 16.3908 10.9507 16.2986 11.042 16.1141C11.1332 15.8373 11.3158 15.5606 11.407 15.1916L11.9545 13.9V13.8078L12.5021 12.6085L12.7759 12.055C12.8671 11.7783 12.9584 11.5015 13.1409 11.2248C13.2321 11.0403 13.3234 10.8558 13.3234 10.7635C13.4146 10.4868 13.5972 10.21 13.6884 9.93326V9.84101L13.7797 9.74875V9.6565L14.1447 8.36499C14.2359 8.08824 14.4185 7.81148 14.5097 7.53473C14.6922 7.16573 14.8747 6.70447 14.966 6.33547ZM21.0802 3.47569H17.6124V3.66019L17.3387 5.04396C17.2474 5.32071 17.2474 5.50521 17.1561 5.78196L16.8824 7.16573C16.8824 7.25798 16.7911 7.44248 16.7911 7.53473C16.7911 7.71923 16.6999 7.81148 16.6999 7.99599L16.4261 9.472C16.4261 9.56425 16.3348 9.74875 16.3348 9.84101L16.1523 10.8558C16.0611 11.2248 15.9698 11.686 15.8786 12.055L15.696 12.9775C15.696 13.162 15.6048 13.3465 15.6048 13.531L15.331 14.8226C15.331 14.9148 15.2398 15.0071 15.2398 15.0993L14.8747 16.7598V16.8521H18.3425V16.6676C18.4337 16.3908 18.4337 16.1141 18.525 15.7451C18.525 15.5606 18.6162 15.3761 18.6162 15.1916L18.89 13.8078L18.9813 13.4388L19.0725 13.0698V12.8853L19.3463 11.686C19.4375 11.2248 19.5288 10.6713 19.6201 10.21C19.7113 10.0255 19.7113 9.74875 19.8026 9.56425C19.8938 8.9185 20.0763 8.36499 20.1676 7.71923C20.2588 7.44248 20.2588 7.07348 20.3501 6.79672C20.5326 5.96647 20.7151 5.04396 20.8976 4.2137C20.9889 4.0292 21.0802 3.75244 21.0802 3.47569ZM29.567 10.3023C29.0194 9.74875 28.3806 9.2875 27.7418 9.01075C27.2856 8.73399 26.8293 8.54949 26.373 8.27274H26.2817C26.0992 8.18049 25.9167 7.99599 25.8255 7.81148C25.643 7.62698 25.643 7.44248 25.643 7.16573C25.643 7.07348 25.7342 6.88898 25.8255 6.79672C26.008 6.51997 26.373 6.33547 26.6468 6.24322C26.8293 6.15097 27.1031 6.15097 27.2856 6.15097H28.6544C28.9282 6.15097 29.2019 6.24322 29.4757 6.33547C29.7495 6.42772 30.1145 6.51997 30.3883 6.70447H30.4795L30.662 5.96647C30.7533 5.68971 30.7533 5.50521 30.8446 5.22846C30.9358 4.7672 31.0271 4.30595 31.0271 3.93695C31.0271 3.8447 31.0271 3.8447 30.9358 3.8447C30.8446 3.8447 30.8446 3.75244 30.7533 3.75244L29.6582 3.47569H29.567C29.0194 3.38344 28.4719 3.29119 27.9244 3.29119H27.0118C26.8293 3.29119 26.738 3.29119 26.5555 3.38344C26.1905 3.38344 25.9167 3.47569 25.643 3.56794C25.3692 3.66019 25.0042 3.75244 24.6391 3.93695C24.3654 4.0292 24.0916 4.2137 23.8178 4.3982C23.5441 4.5827 23.2703 4.85946 22.9965 5.13621C22.9053 5.22846 22.9053 5.32071 22.814 5.32071C22.6315 5.59746 22.449 5.87422 22.3577 6.15097V6.24322C22.1752 6.61222 22.084 7.07348 22.084 7.44248C21.9927 7.90374 22.084 8.45724 22.2665 8.9185C22.449 9.472 22.814 9.841 23.179 10.21C23.4528 10.4868 23.8178 10.7635 24.1829 10.948C24.4566 11.1325 24.7304 11.2248 25.0042 11.4093C25.0954 11.5015 25.2779 11.5015 25.3692 11.5938C25.5517 11.686 25.643 11.7783 25.8255 11.8705C26.008 11.9628 26.2817 12.1473 26.4643 12.3318C26.6468 12.5163 26.738 12.7008 26.8293 12.9775V13.162C26.8293 13.3465 26.738 13.6233 26.5555 13.8078C26.373 13.9923 26.1905 14.0845 26.008 14.1768C25.9167 14.269 25.7342 14.269 25.643 14.269C25.2779 14.3613 24.9129 14.3613 24.6391 14.3613H24.1829C23.8178 14.3613 23.4528 14.269 22.9965 14.1768C22.814 14.1768 22.6315 14.0845 22.449 14.0845C22.2665 13.9923 22.084 13.9923 21.9015 13.9C21.6277 13.8078 21.4452 13.7155 21.1714 13.6233C21.1714 13.6233 21.0802 13.531 21.0802 13.6233C20.9889 13.9 20.9889 14.1768 20.8976 14.4536C20.7151 15.0993 20.6239 15.8373 20.4414 16.4831V16.5753C20.7151 16.6676 21.0802 16.8521 21.4452 16.9443C21.5364 16.9443 21.7189 17.0366 21.8102 17.0366C21.9015 17.0366 21.9927 17.1288 22.084 17.1288C22.3577 17.2211 22.6315 17.2211 22.9053 17.2211H25.0954C25.3692 17.2211 25.7342 17.1288 26.008 17.1288C26.1905 17.1288 26.373 17.0366 26.4643 17.0366C26.8293 16.9443 27.1031 16.8521 27.4681 16.7598C27.6506 16.6676 27.9244 16.5753 28.1069 16.3908H28.1981C28.4719 16.2063 28.7457 16.0218 28.9282 15.8373C29.2019 15.5606 29.4757 15.2838 29.6582 14.9148C30.1145 14.1768 30.297 13.3465 30.2058 12.5163C30.3883 11.5938 30.1145 10.8558 29.567 10.3023Z" fill="black"/>
</g>
<defs>
<clipPath id="clip0_1_4231">
<rect width="263" height="25" fill="white" transform="translate(0 0.0625)"/>
</clipPath>
</defs>
</svg>
