<svg width="25" height="25" viewBox="0 0 25 25" fill="none" xmlns="http://www.w3.org/2000/svg">
<path d="M24.9784 12.0629C24.9784 18.1237 20.4872 23.1342 14.6526 23.9473C14.1071 24.023 13.5489 24.0625 12.9824 24.0625C12.3284 24.0625 11.6862 24.0104 11.0608 23.9095C5.34898 22.9896 0.986328 18.0354 0.986328 12.0629C0.986328 5.43544 6.35769 0.0625 12.9832 0.0625C19.6087 0.0625 24.9801 5.43544 24.9801 12.0629H24.9784Z" fill="black"/>
<path d="M5.85087 5.35571L11.3836 12.7551L5.81641 18.7713H7.06973L11.9443 13.5043L15.8825 18.7713H20.1468L14.303 10.9557L19.4852 5.35571H18.2319L13.7432 10.2065L10.116 5.35571H5.8517H5.85087ZM7.69344 6.27895H9.65201L18.3025 17.848H16.3439L7.69344 6.27895Z" fill="white"/>
</svg>
