<svg width="25" height="25" viewBox="0 0 25 25" fill="none" xmlns="http://www.w3.org/2000/svg">
<path d="M24.9734 12.0625C24.9734 5.43508 19.6024 0.0625 12.9769 0.0625C6.35148 0.0625 0.980469 5.43508 0.980469 12.0625C0.980469 18.6899 6.35148 24.0625 12.9769 24.0625C19.6024 24.0625 24.9734 18.6899 24.9734 12.0625Z" fill="black"/>
<path d="M20.5307 9.5759C20.4363 8.66437 20.2332 7.65672 19.4854 7.12717C18.9063 6.71652 18.1451 6.70133 17.4345 6.70218C15.9323 6.70218 14.4292 6.70471 12.927 6.70555C11.4822 6.70724 10.0373 6.70808 8.59242 6.70977C7.98885 6.70977 7.40213 6.66339 6.84155 6.92479C6.3602 7.14909 5.98339 7.57577 5.75663 8.05051C5.4422 8.71075 5.37645 9.4587 5.33851 10.1889C5.26855 11.5187 5.27613 12.8519 5.35959 14.1808C5.42113 15.1505 5.57707 16.2222 6.32649 16.8403C6.99075 17.3876 7.92815 17.4146 8.78967 17.4154C11.5243 17.4179 14.2598 17.4205 16.9953 17.4222C17.3459 17.423 17.7118 17.4163 18.0692 17.3775C18.7723 17.3016 19.4424 17.1 19.8943 16.5789C20.3503 16.0536 20.4675 15.3225 20.5366 14.6302C20.7052 12.9505 20.7035 11.2548 20.5307 9.5759ZM11.3456 14.4169V9.70745L15.4223 12.0617L11.3456 14.4169Z" fill="white"/>
</svg>
