<svg width="31" height="31" viewBox="0 0 31 31" fill="none" xmlns="http://www.w3.org/2000/svg">
<path d="M9 29C9.55228 29 10 28.5523 10 28C10 27.4477 9.55228 27 9 27C8.44772 27 8 27.4477 8 28C8 28.5523 8.44772 29 9 29Z" stroke="black" stroke-width="2" stroke-linecap="round" stroke-linejoin="round"/>
<path d="M20 29C20.5523 29 21 28.5523 21 28C21 27.4477 20.5523 27 20 27C19.4477 27 19 27.4477 19 28C19 28.5523 19.4477 29 20 29Z" stroke="black" stroke-width="2" stroke-linecap="round" stroke-linejoin="round"/>
<path d="M1 8H5L7.68 21.39C7.77144 21.8504 8.02191 22.264 8.38755 22.5583C8.75318 22.8526 9.2107 23.009 9.68 23H19.4C19.8693 23.009 20.3268 22.8526 20.6925 22.5583C21.0581 22.264 21.3086 21.8504 21.4 21.39L23 13H6" stroke="black" stroke-width="2" stroke-linecap="round" stroke-linejoin="round"/>
<rect x="17.5" y="0.5" width="13" height="13" rx="6.5" fill="#FD7E14"/>
<rect x="17.5" y="0.5" width="13" height="13" rx="6.5" stroke="white"/>
<path d="M24 10.5994C23.465 10.5994 23.0092 10.4538 22.6328 10.1626C22.2564 9.86908 21.9688 9.44413 21.7699 8.88778C21.571 8.32907 21.4716 7.65436 21.4716 6.86364C21.4716 6.07765 21.571 5.40649 21.7699 4.85014C21.9711 4.29143 22.2599 3.86529 22.6364 3.57173C23.0152 3.2758 23.4697 3.12784 24 3.12784C24.5303 3.12784 24.9837 3.2758 25.3601 3.57173C25.7389 3.86529 26.0277 4.29143 26.2266 4.85014C26.4278 5.40649 26.5284 6.07765 26.5284 6.86364C26.5284 7.65436 26.429 8.32907 26.2301 8.88778C26.0312 9.44413 25.7436 9.86908 25.3672 10.1626C24.9908 10.4538 24.535 10.5994 24 10.5994ZM24 9.81818C24.5303 9.81818 24.9422 9.5625 25.2358 9.05114C25.5294 8.53977 25.6761 7.81061 25.6761 6.86364C25.6761 6.2339 25.6087 5.69768 25.4737 5.25497C25.3411 4.81226 25.1494 4.47491 24.8984 4.2429C24.6499 4.01089 24.3504 3.89489 24 3.89489C23.4744 3.89489 23.0637 4.15412 22.7678 4.67259C22.4718 5.18868 22.3239 5.91903 22.3239 6.86364C22.3239 7.49337 22.3902 8.02841 22.5227 8.46875C22.6553 8.90909 22.8459 9.24408 23.0945 9.47372C23.3454 9.70336 23.6473 9.81818 24 9.81818Z" fill="white"/>
</svg>
