<svg width="28" height="28" viewBox="0 0 28 28" fill="none" xmlns="http://www.w3.org/2000/svg">
<rect width="28" height="28" rx="14" fill="#F8F9FA"/>
<path d="M21.3651 7.84166C20.9395 7.41583 20.4342 7.07803 19.8779 6.84757C19.3217 6.6171 18.7255 6.49847 18.1235 6.49847C17.5214 6.49847 16.9252 6.6171 16.369 6.84757C15.8128 7.07803 15.3074 7.41583 14.8818 7.84166L13.9985 8.725L13.1151 7.84166C12.2554 6.98192 11.0893 6.49892 9.87347 6.49892C8.65761 6.49892 7.49155 6.98192 6.6318 7.84166C5.77206 8.70141 5.28906 9.86747 5.28906 11.0833C5.28906 12.2992 5.77206 13.4653 6.6318 14.325L7.51514 15.2083L13.9985 21.6917L20.4818 15.2083L21.3651 14.325C21.791 13.8994 22.1288 13.394 22.3592 12.8378C22.5897 12.2816 22.7083 11.6854 22.7083 11.0833C22.7083 10.4813 22.5897 9.88508 22.3592 9.32887C22.1288 8.77265 21.791 8.26729 21.3651 7.84166Z" stroke="#FD7E14" stroke-width="2" stroke-linecap="round" stroke-linejoin="round"/>
</svg>
