<svg width="122" height="92" viewBox="0 0 122 92" fill="none" xmlns="http://www.w3.org/2000/svg">
<path d="M67.1336 11.7591C66.1953 11.8733 65.9145 13.1435 66.9031 13.4644C71.977 15.1113 68.9519 21.3432 69.4129 24.9538C69.4782 25.4665 70.0507 25.7956 70.4702 25.3917C73.4669 22.508 73.0269 11.0437 67.1336 11.7591Z" fill="white"/>
<path d="M49.5025 17.4884C48.4846 15.6777 46.7405 14.5007 44.74 14.0383C43.8996 13.8438 43.5875 15.0324 44.3871 15.3187C45.9701 15.8864 47.1661 17.1743 47.8753 18.6804C48.4642 19.9316 48.2371 21.4833 48.947 22.6358C49.1095 22.9003 49.4148 22.8996 49.6385 22.7249C51.1405 21.5519 50.2709 18.8552 49.5025 17.4884Z" fill="white"/>
<path d="M30.8294 29.3601C29.9631 27.652 28.4059 26.0343 26.3443 26.5545C25.408 26.7905 25.6167 28.215 26.57 28.2225C30.063 28.2497 29.7169 34.4217 31.4991 36.3699C31.6541 36.5392 32.0111 36.5181 32.1104 36.291C32.9916 34.2789 31.7663 31.2075 30.8294 29.3601Z" fill="white"/>
<path d="M38.1595 63.9352C35.5409 65.1108 30.4765 66.9814 27.8906 64.7409C26.0934 63.1838 26.1934 59.2577 26.3212 57.1117C26.7272 50.3181 30.5887 43.6177 34.6712 38.3521C39.552 32.0583 46.8569 27.2557 54.8173 26.9871C60.8602 26.7831 66.8133 29.2085 71.5316 32.9892C76.2499 36.7698 79.815 41.8315 82.5532 47.2216C83.8893 49.8517 85.0636 52.6633 85.1085 55.613C85.1527 58.5627 83.8485 61.6906 81.2558 63.0974C79.1771 64.2255 76.6096 64.0929 74.3602 63.362C72.1109 62.6317 70.0839 61.3601 68.0012 60.2389C64.1594 58.1711 59.8967 56.5609 55.5422 56.8254C49.2463 57.2089 43.914 61.3513 38.1595 63.9352Z" fill="url(#paint0_linear_1_3927)"/>
<path d="M32.1888 30.7398C32.9619 37.1117 28.1213 40.5782 23.1772 35.7878C20.1452 32.8504 17.7851 27.6248 17.3621 23.4233C17.1493 21.3059 17.4084 18.9131 19.0049 17.5062C20.5349 16.1578 22.927 16.1504 24.7527 17.0595C26.5784 17.9686 27.9173 19.6298 28.9692 21.3773C30.6834 24.2257 31.7883 27.4392 32.1888 30.7398Z" fill="url(#paint1_linear_1_3927)"/>
<path d="M50.4659 13.5808C51.4845 17.8694 50.2748 24.4882 44.4808 24.0013C37.5451 23.4186 36.7394 11.4505 37.4894 6.51867C37.7702 4.66915 38.4889 2.60409 40.233 1.92821C41.4339 1.46243 42.8326 1.82009 43.8926 2.55241C44.952 3.28406 45.734 4.34549 46.4636 5.40692C48.19 7.92212 49.7607 10.6121 50.4659 13.5808Z" fill="url(#paint2_linear_1_3927)"/>
<path d="M74.5859 10.776C74.6485 7.93437 74.0147 4.95136 72.1489 2.80742C70.2831 0.663482 66.9852 -0.372108 64.4666 0.94499C61.8522 2.31172 60.89 5.53749 60.4589 8.45523C59.8728 12.4174 58.9269 19.6985 61.8209 23.0365C63.6323 25.126 66.3488 24.0387 68.4261 22.8318C72.5011 20.4628 74.4873 15.2909 74.5859 10.776Z" fill="url(#paint3_linear_1_3927)"/>
<path d="M91.6463 36.7733C87.5658 40.6219 79.2254 39.4292 79.9618 32.7907C80.4595 28.3002 83.5159 23.6737 86.2861 20.2283C87.9759 18.1272 90.4482 16.0982 93.0804 16.6836C95.1679 17.148 96.604 19.2083 96.9691 21.3156C97.3336 23.4228 96.8351 25.5769 96.2687 27.6393C95.3528 30.9725 94.1615 34.4015 91.6463 36.7733Z" fill="url(#paint4_linear_1_3927)"/>
<path d="M11.512 79.3548H10.1029C10.0196 78.9495 9.87373 78.5934 9.66539 78.2866C9.46085 77.9798 9.21085 77.7222 8.91539 77.5139C8.62373 77.3017 8.29986 77.1426 7.9438 77.0366C7.58774 76.9305 7.21653 76.8775 6.83017 76.8775C6.12562 76.8775 5.48736 77.0555 4.91539 77.4116C4.34721 77.7676 3.89456 78.2923 3.55744 78.9854C3.22411 79.6786 3.05744 80.529 3.05744 81.5366C3.05744 82.5442 3.22411 83.3945 3.55744 84.0877C3.89456 84.7809 4.34721 85.3055 4.91539 85.6616C5.48736 86.0176 6.12562 86.1957 6.83017 86.1957C7.21653 86.1957 7.58774 86.1426 7.9438 86.0366C8.29986 85.9305 8.62373 85.7733 8.91539 85.565C9.21085 85.3529 9.46085 85.0934 9.66539 84.7866C9.87373 84.476 10.0196 84.1199 10.1029 83.7184H11.512C11.4059 84.3131 11.2127 84.8453 10.9324 85.315C10.6521 85.7847 10.3037 86.1843 9.88699 86.5139C9.47032 86.8396 9.00252 87.0877 8.48358 87.2582C7.96842 87.4286 7.41729 87.5139 6.83017 87.5139C5.83774 87.5139 4.95517 87.2714 4.18244 86.7866C3.40971 86.3017 2.80176 85.6123 2.35858 84.7184C1.91539 83.8245 1.6938 82.7639 1.6938 81.5366C1.6938 80.3093 1.91539 79.2487 2.35858 78.3548C2.80176 77.4608 3.40971 76.7714 4.18244 76.2866C4.95517 75.8017 5.83774 75.5593 6.83017 75.5593C7.41729 75.5593 7.96842 75.6445 8.48358 75.815C9.00252 75.9854 9.47032 76.2354 9.88699 76.565C10.3037 76.8908 10.6521 77.2885 10.9324 77.7582C11.2127 78.2241 11.4059 78.7563 11.512 79.3548ZM17.1526 87.5366C16.3647 87.5366 15.6734 87.3491 15.0787 86.9741C14.4878 86.5991 14.0257 86.0745 13.6924 85.4002C13.3628 84.726 13.1981 83.9381 13.1981 83.0366C13.1981 82.1275 13.3628 81.3339 13.6924 80.6559C14.0257 79.9779 14.4878 79.4514 15.0787 79.0764C15.6734 78.7014 16.3647 78.5139 17.1526 78.5139C17.9405 78.5139 18.6299 78.7014 19.2208 79.0764C19.8155 79.4514 20.2776 79.9779 20.6072 80.6559C20.9405 81.3339 21.1072 82.1275 21.1072 83.0366C21.1072 83.9381 20.9405 84.726 20.6072 85.4002C20.2776 86.0745 19.8155 86.5991 19.2208 86.9741C18.6299 87.3491 17.9405 87.5366 17.1526 87.5366ZM17.1526 86.332C17.7511 86.332 18.2435 86.1786 18.6299 85.8718C19.0162 85.565 19.3022 85.1616 19.4878 84.6616C19.6734 84.1616 19.7662 83.6199 19.7662 83.0366C19.7662 82.4533 19.6734 81.9097 19.4878 81.4059C19.3022 80.9021 19.0162 80.4949 18.6299 80.1843C18.2435 79.8737 17.7511 79.7184 17.1526 79.7184C16.5541 79.7184 16.0617 79.8737 15.6753 80.1843C15.289 80.4949 15.003 80.9021 14.8174 81.4059C14.6318 81.9097 14.539 82.4533 14.539 83.0366C14.539 83.6199 14.6318 84.1616 14.8174 84.6616C15.003 85.1616 15.289 85.565 15.6753 85.8718C16.0617 86.1786 16.5541 86.332 17.1526 86.332ZM23.154 87.3548V78.6275H24.4495V79.9911H24.5631C24.7449 79.5252 25.0385 79.1635 25.4438 78.9059C25.8491 78.6445 26.3358 78.5139 26.904 78.5139C27.4798 78.5139 27.959 78.6445 28.3415 78.9059C28.7279 79.1635 29.029 79.5252 29.2449 79.9911H29.3358C29.5593 79.5404 29.8946 79.1824 30.3415 78.9173C30.7885 78.6483 31.3245 78.5139 31.9495 78.5139C32.7298 78.5139 33.368 78.7582 33.8643 79.2468C34.3605 79.7317 34.6086 80.4873 34.6086 81.5139V87.3548H33.2677V81.5139C33.2677 80.8699 33.0915 80.4097 32.7393 80.1332C32.387 79.8567 31.9722 79.7184 31.4949 79.7184C30.8813 79.7184 30.4059 79.904 30.0688 80.2752C29.7317 80.6426 29.5631 81.1086 29.5631 81.6729V87.3548H28.1995V81.3775C28.1995 80.8813 28.0385 80.4817 27.7165 80.1786C27.3946 79.8718 26.9798 79.7184 26.4722 79.7184C26.1237 79.7184 25.798 79.8112 25.4949 79.9968C25.1957 80.1824 24.9533 80.44 24.7677 80.7695C24.5858 81.0953 24.4949 81.4722 24.4949 81.9002V87.3548H23.154ZM37.0603 90.6275V78.6275H38.3557V80.0139H38.5148C38.6133 79.8623 38.7497 79.6692 38.9239 79.4343C39.1019 79.1957 39.3557 78.9836 39.6853 78.7979C40.0186 78.6086 40.4694 78.5139 41.0376 78.5139C41.7724 78.5139 42.4201 78.6976 42.9807 79.065C43.5413 79.4324 43.9788 79.9533 44.2932 80.6275C44.6076 81.3017 44.7648 82.0972 44.7648 83.0139C44.7648 83.9381 44.6076 84.7392 44.2932 85.4173C43.9788 86.0915 43.5432 86.6142 42.9864 86.9854C42.4296 87.3529 41.7876 87.5366 41.0603 87.5366C40.4997 87.5366 40.0508 87.4438 39.7137 87.2582C39.3766 87.0688 39.1171 86.8548 38.9353 86.6161C38.7535 86.3737 38.6133 86.1729 38.5148 86.0139H38.4012V90.6275H37.0603ZM38.3785 82.9911C38.3785 83.6502 38.4751 84.2317 38.6682 84.7354C38.8614 85.2354 39.1436 85.6275 39.5148 85.9116C39.886 86.1919 40.3406 86.332 40.8785 86.332C41.4391 86.332 41.9069 86.1843 42.2819 85.8889C42.6607 85.5896 42.9448 85.1881 43.1341 84.6843C43.3273 84.1767 43.4239 83.6123 43.4239 82.9911C43.4239 82.3775 43.3292 81.8245 43.1398 81.332C42.9542 80.8358 42.672 80.4438 42.2932 80.1559C41.9182 79.8642 41.4466 79.7184 40.8785 79.7184C40.333 79.7184 39.8747 79.8567 39.5035 80.1332C39.1323 80.4059 38.8519 80.7885 38.6626 81.2809C38.4732 81.7695 38.3785 82.3396 38.3785 82.9911ZM49.3785 87.5593C48.8254 87.5593 48.3235 87.4551 47.8728 87.2468C47.422 87.0347 47.0641 86.7298 46.7989 86.332C46.5338 85.9305 46.4012 85.4457 46.4012 84.8775C46.4012 84.3775 46.4997 83.9722 46.6966 83.6616C46.8936 83.3472 47.1569 83.101 47.4864 82.9229C47.816 82.7449 48.1796 82.6123 48.5773 82.5252C48.9788 82.4343 49.3823 82.3623 49.7876 82.3093C50.3179 82.2411 50.7478 82.19 51.0773 82.1559C51.4107 82.118 51.6531 82.0555 51.8046 81.9684C51.9599 81.8813 52.0376 81.7298 52.0376 81.5139V81.4684C52.0376 80.9078 51.8841 80.4722 51.5773 80.1616C51.2743 79.851 50.8141 79.6957 50.1966 79.6957C49.5565 79.6957 49.0546 79.8358 48.691 80.1161C48.3273 80.3964 48.0716 80.6957 47.9239 81.0139L46.6512 80.5593C46.8785 80.029 47.1815 79.6161 47.5603 79.3207C47.9429 79.0214 48.3595 78.8131 48.8103 78.6957C49.2648 78.5745 49.7118 78.5139 50.1512 78.5139C50.4315 78.5139 50.7535 78.5479 51.1171 78.6161C51.4845 78.6805 51.8387 78.815 52.1796 79.0195C52.5243 79.2241 52.8103 79.5328 53.0376 79.9457C53.2648 80.3586 53.3785 80.9116 53.3785 81.6048V87.3548H52.0376V86.1729H51.9694C51.8785 86.3623 51.7269 86.565 51.5148 86.7809C51.3027 86.9968 51.0205 87.1805 50.6682 87.332C50.316 87.4836 49.886 87.5593 49.3785 87.5593ZM49.583 86.3548C50.1133 86.3548 50.5603 86.2506 50.9239 86.0423C51.2913 85.8339 51.5679 85.565 51.7535 85.2354C51.9429 84.9059 52.0376 84.5593 52.0376 84.1957V82.9684C51.9807 83.0366 51.8557 83.0991 51.6626 83.1559C51.4732 83.2089 51.2535 83.2563 51.0035 83.2979C50.7573 83.3358 50.5167 83.3699 50.2819 83.4002C50.0508 83.4267 49.8633 83.4495 49.7194 83.4684C49.3709 83.5139 49.0451 83.5877 48.7421 83.69C48.4429 83.7885 48.2004 83.9381 48.0148 84.1389C47.833 84.3358 47.7421 84.6048 47.7421 84.9457C47.7421 85.4116 47.9144 85.7639 48.2591 86.0025C48.6076 86.2373 49.0489 86.3548 49.583 86.3548ZM57.1668 82.1048V87.3548H55.8259V78.6275H57.1214V79.9911H57.235C57.4395 79.5479 57.7501 79.1919 58.1668 78.9229C58.5835 78.6502 59.1214 78.5139 59.7805 78.5139C60.3714 78.5139 60.8884 78.6351 61.3316 78.8775C61.7748 79.1161 62.1195 79.4798 62.3657 79.9684C62.6119 80.4533 62.735 81.0669 62.735 81.8093V87.3548H61.3941V81.9002C61.3941 81.2146 61.2161 80.6805 60.86 80.2979C60.5039 79.9116 60.0153 79.7184 59.3941 79.7184C58.9661 79.7184 58.5835 79.8112 58.2464 79.9968C57.913 80.1824 57.6498 80.4533 57.4566 80.8093C57.2634 81.1654 57.1668 81.5972 57.1668 82.1048ZM65.7364 90.6275C65.5091 90.6275 65.3065 90.6086 65.1285 90.5707C64.9504 90.5366 64.8273 90.5025 64.7591 90.4684L65.1001 89.2866C65.4258 89.3699 65.7137 89.4002 65.9637 89.3775C66.2137 89.3548 66.4353 89.243 66.6285 89.0423C66.8254 88.8453 67.0054 88.5252 67.1682 88.082L67.4182 87.4002L64.191 78.6275H65.6455L68.0546 85.582H68.1455L70.5546 78.6275H72.0091L68.3046 88.6275C68.1379 89.0783 67.9315 89.4514 67.6853 89.7468C67.4391 90.0461 67.1531 90.2676 66.8273 90.4116C66.5054 90.5555 66.1417 90.6275 65.7364 90.6275ZM87.6881 75.7184V87.3548H86.3245L79.9836 78.2184H79.8699V87.3548H78.4608V75.7184H79.8245L86.1881 84.8775H86.3018V75.7184H87.6881ZM92.8941 87.5593C92.3411 87.5593 91.8392 87.4551 91.3884 87.2468C90.9376 87.0347 90.5797 86.7298 90.3145 86.332C90.0494 85.9305 89.9168 85.4457 89.9168 84.8775C89.9168 84.3775 90.0153 83.9722 90.2123 83.6616C90.4092 83.3472 90.6725 83.101 91.002 82.9229C91.3316 82.7449 91.6952 82.6123 92.093 82.5252C92.4945 82.4343 92.8979 82.3623 93.3032 82.3093C93.8335 82.2411 94.2634 82.19 94.593 82.1559C94.9263 82.118 95.1687 82.0555 95.3202 81.9684C95.4755 81.8813 95.5532 81.7298 95.5532 81.5139V81.4684C95.5532 80.9078 95.3998 80.4722 95.093 80.1616C94.7899 79.851 94.3297 79.6957 93.7123 79.6957C93.0721 79.6957 92.5702 79.8358 92.2066 80.1161C91.843 80.3964 91.5873 80.6957 91.4395 81.0139L90.1668 80.5593C90.3941 80.029 90.6971 79.6161 91.0759 79.3207C91.4585 79.0214 91.8751 78.8131 92.3259 78.6957C92.7805 78.5745 93.2274 78.5139 93.6668 78.5139C93.9471 78.5139 94.2691 78.5479 94.6327 78.6161C95.0001 78.6805 95.3543 78.815 95.6952 79.0195C96.0399 79.2241 96.3259 79.5328 96.5532 79.9457C96.7805 80.3586 96.8941 80.9116 96.8941 81.6048V87.3548H95.5532V86.1729H95.485C95.3941 86.3623 95.2426 86.565 95.0305 86.7809C94.8183 86.9968 94.5361 87.1805 94.1839 87.332C93.8316 87.4836 93.4017 87.5593 92.8941 87.5593ZM93.0986 86.3548C93.6289 86.3548 94.0759 86.2506 94.4395 86.0423C94.807 85.8339 95.0835 85.565 95.2691 85.2354C95.4585 84.9059 95.5532 84.5593 95.5532 84.1957V82.9684C95.4964 83.0366 95.3714 83.0991 95.1782 83.1559C94.9888 83.2089 94.7691 83.2563 94.5191 83.2979C94.2729 83.3358 94.0323 83.3699 93.7975 83.4002C93.5664 83.4267 93.3789 83.4495 93.235 83.4684C92.8865 83.5139 92.5608 83.5877 92.2577 83.69C91.9585 83.7885 91.7161 83.9381 91.5305 84.1389C91.3486 84.3358 91.2577 84.6048 91.2577 84.9457C91.2577 85.4116 91.4301 85.7639 91.7748 86.0025C92.1233 86.2373 92.5645 86.3548 93.0986 86.3548ZM99.3415 87.3548V78.6275H100.637V79.9911H100.751C100.932 79.5252 101.226 79.1635 101.631 78.9059C102.037 78.6445 102.523 78.5139 103.092 78.5139C103.667 78.5139 104.146 78.6445 104.529 78.9059C104.915 79.1635 105.217 79.5252 105.432 79.9911H105.523C105.747 79.5404 106.082 79.1824 106.529 78.9173C106.976 78.6483 107.512 78.5139 108.137 78.5139C108.917 78.5139 109.556 78.7582 110.052 79.2468C110.548 79.7317 110.796 80.4873 110.796 81.5139V87.3548H109.455V81.5139C109.455 80.8699 109.279 80.4097 108.927 80.1332C108.574 79.8567 108.16 79.7184 107.682 79.7184C107.069 79.7184 106.593 79.904 106.256 80.2752C105.919 80.6426 105.751 81.1086 105.751 81.6729V87.3548H104.387V81.3775C104.387 80.8813 104.226 80.4817 103.904 80.1786C103.582 79.8718 103.167 79.7184 102.66 79.7184C102.311 79.7184 101.985 79.8112 101.682 79.9968C101.383 80.1824 101.141 80.44 100.955 80.7695C100.773 81.0953 100.682 81.4722 100.682 81.9002V87.3548H99.3415ZM116.907 87.5366C116.066 87.5366 115.341 87.351 114.731 86.9798C114.125 86.6048 113.657 86.082 113.327 85.4116C113.002 84.7373 112.839 83.9533 112.839 83.0593C112.839 82.1654 113.002 81.3775 113.327 80.6957C113.657 80.0101 114.115 79.476 114.702 79.0934C115.293 78.707 115.983 78.5139 116.771 78.5139C117.225 78.5139 117.674 78.5896 118.117 78.7411C118.56 78.8926 118.964 79.1389 119.327 79.4798C119.691 79.8169 119.981 80.2639 120.197 80.8207C120.413 81.3775 120.521 82.0631 120.521 82.8775V83.4457H113.793V82.2866H119.157C119.157 81.7942 119.058 81.3548 118.861 80.9684C118.668 80.582 118.392 80.2771 118.032 80.0536C117.676 79.8301 117.255 79.7184 116.771 79.7184C116.236 79.7184 115.774 79.851 115.384 80.1161C114.998 80.3775 114.7 80.7184 114.492 81.1389C114.284 81.5593 114.18 82.0101 114.18 82.4911V83.2639C114.18 83.9229 114.293 84.4817 114.521 84.94C114.752 85.3945 115.072 85.7411 115.481 85.9798C115.89 86.2146 116.365 86.332 116.907 86.332C117.259 86.332 117.577 86.2828 117.861 86.1843C118.149 86.082 118.397 85.9305 118.606 85.7298C118.814 85.5252 118.975 85.2714 119.089 84.9684L120.384 85.332C120.248 85.7714 120.019 86.1578 119.697 86.4911C119.375 86.8207 118.977 87.0783 118.503 87.2639C118.03 87.4457 117.498 87.5366 116.907 87.5366Z" fill="url(#paint5_linear_1_3927)"/>
<path d="M61.7402 31.4444C61.7205 31.3329 61.6831 31.2316 61.6634 31.1201C61.5471 30.455 60.8603 29.9729 60.2341 29.8886C59.4609 29.7846 58.7381 30.1953 58.4349 30.9147C58.1683 31.5464 58.2968 32.2984 58.7905 32.7921C59.3556 33.3571 60.1831 33.4013 60.8732 33.0607C60.4088 33.2898 61.0324 33.0036 61.1235 32.96C61.6892 32.686 61.8402 32.002 61.7402 31.4444Z" fill="white"/>
<path d="M66.1627 33.2753C65.2196 32.8299 64.1255 33.9995 64.983 34.8039C68.17 37.793 71.6113 40.1069 74.1394 43.7801C77.2013 48.2291 78.3416 53.6179 77.1925 58.908C76.7369 61.0051 80.0531 61.8312 80.3611 59.7818C82.0284 48.6684 76.4663 38.1452 66.1627 33.2753Z" fill="white"/>
<path d="M92.4574 19.9309C91.5796 19.4719 90.5998 20.6122 91.3661 21.3452C93.0613 22.9656 92.0821 26.719 91.5769 28.5692C91.1199 30.244 90.1285 31.7304 90.0687 33.4677C90.051 33.9804 90.7045 34.4054 91.1492 34.0878C93.287 32.5599 93.9194 29.1207 94.2458 26.6551C94.5517 24.3466 94.8883 21.2018 92.4574 19.9309Z" fill="white"/>
<defs>
<linearGradient id="paint0_linear_1_3927" x1="55.6847" y1="26.9751" x2="55.6847" y2="65.7894" gradientUnits="userSpaceOnUse">
<stop stop-color="#F87537"/>
<stop offset="1" stop-color="#FBA81F"/>
</linearGradient>
<linearGradient id="paint1_linear_1_3927" x1="24.7842" y1="16.4277" x2="24.7842" y2="38.0258" gradientUnits="userSpaceOnUse">
<stop stop-color="#F87537"/>
<stop offset="1" stop-color="#FBA81F"/>
</linearGradient>
<linearGradient id="paint2_linear_1_3927" x1="44.0264" y1="1.71906" x2="44.0264" y2="24.0267" gradientUnits="userSpaceOnUse">
<stop stop-color="#F87537"/>
<stop offset="1" stop-color="#FBA81F"/>
</linearGradient>
<linearGradient id="paint3_linear_1_3927" x1="67.2101" y1="0.361115" x2="67.2101" y2="24.2152" gradientUnits="userSpaceOnUse">
<stop stop-color="#F87537"/>
<stop offset="1" stop-color="#FBA81F"/>
</linearGradient>
<linearGradient id="paint4_linear_1_3927" x1="88.5047" y1="16.5814" x2="88.5047" y2="38.9548" gradientUnits="userSpaceOnUse">
<stop stop-color="#F87537"/>
<stop offset="1" stop-color="#FBA81F"/>
</linearGradient>
<linearGradient id="paint5_linear_1_3927" x1="61.2393" y1="72.3548" x2="61.2393" y2="91.3548" gradientUnits="userSpaceOnUse">
<stop stop-color="#F87537"/>
<stop offset="1" stop-color="#FBA81F"/>
</linearGradient>
</defs>
</svg>
