<svg width="121" height="88" viewBox="0 0 121 88" fill="none" xmlns="http://www.w3.org/2000/svg">
<path d="M10.7727 75.6774H9.36364C9.2803 75.2721 9.13447 74.916 8.92614 74.6092C8.72159 74.3024 8.47159 74.0448 8.17614 73.8365C7.88447 73.6244 7.56061 73.4653 7.20455 73.3592C6.84849 73.2532 6.47727 73.2001 6.09091 73.2001C5.38636 73.2001 4.74811 73.3782 4.17614 73.7342C3.60795 74.0903 3.1553 74.6149 2.81818 75.3081C2.48485 76.0013 2.31818 76.8517 2.31818 77.8592C2.31818 78.8668 2.48485 79.7172 2.81818 80.4104C3.1553 81.1036 3.60795 81.6282 4.17614 81.9842C4.74811 82.3403 5.38636 82.5183 6.09091 82.5183C6.47727 82.5183 6.84849 82.4653 7.20455 82.3592C7.56061 82.2532 7.88447 82.096 8.17614 81.8876C8.47159 81.6755 8.72159 81.4161 8.92614 81.1092C9.13447 80.7986 9.2803 80.4426 9.36364 80.0411H10.7727C10.6667 80.6357 10.4735 81.1679 10.1932 81.6376C9.91288 82.1073 9.56439 82.507 9.14773 82.8365C8.73106 83.1623 8.26326 83.4104 7.74432 83.5808C7.22917 83.7513 6.67803 83.8365 6.09091 83.8365C5.09849 83.8365 4.21591 83.5941 3.44318 83.1092C2.67045 82.6244 2.0625 81.935 1.61932 81.0411C1.17614 80.1471 0.954545 79.0865 0.954545 77.8592C0.954545 76.632 1.17614 75.5714 1.61932 74.6774C2.0625 73.7835 2.67045 73.0941 3.44318 72.6092C4.21591 72.1244 5.09849 71.882 6.09091 71.882C6.67803 71.882 7.22917 71.9672 7.74432 72.1376C8.26326 72.3081 8.73106 72.5581 9.14773 72.8876C9.56439 73.2134 9.91288 73.6111 10.1932 74.0808C10.4735 74.5467 10.6667 75.0789 10.7727 75.6774ZM16.4134 83.8592C15.6255 83.8592 14.9342 83.6717 14.3395 83.2967C13.7486 82.9217 13.2865 82.3971 12.9531 81.7229C12.6236 81.0486 12.4588 80.2607 12.4588 79.3592C12.4588 78.4501 12.6236 77.6566 12.9531 76.9785C13.2865 76.3005 13.7486 75.774 14.3395 75.399C14.9342 75.024 15.6255 74.8365 16.4134 74.8365C17.2012 74.8365 17.8906 75.024 18.4815 75.399C19.0762 75.774 19.5384 76.3005 19.8679 76.9785C20.2012 77.6566 20.3679 78.4501 20.3679 79.3592C20.3679 80.2607 20.2012 81.0486 19.8679 81.7229C19.5384 82.3971 19.0762 82.9217 18.4815 83.2967C17.8906 83.6717 17.2012 83.8592 16.4134 83.8592ZM16.4134 82.6547C17.0118 82.6547 17.5043 82.5013 17.8906 82.1945C18.277 81.8876 18.563 81.4842 18.7486 80.9842C18.9342 80.4842 19.027 79.9426 19.027 79.3592C19.027 78.7759 18.9342 78.2323 18.7486 77.7285C18.563 77.2248 18.277 76.8176 17.8906 76.507C17.5043 76.1964 17.0118 76.041 16.4134 76.041C15.8149 76.041 15.3224 76.1964 14.9361 76.507C14.5497 76.8176 14.2637 77.2248 14.0781 77.7285C13.8925 78.2323 13.7997 78.7759 13.7997 79.3592C13.7997 79.9426 13.8925 80.4842 14.0781 80.9842C14.2637 81.4842 14.5497 81.8876 14.9361 82.1945C15.3224 82.5013 15.8149 82.6547 16.4134 82.6547ZM22.4148 83.6774V74.9501H23.7102V76.3138H23.8239C24.0057 75.8479 24.2992 75.4861 24.7045 75.2285C25.1098 74.9672 25.5966 74.8365 26.1648 74.8365C26.7405 74.8365 27.2197 74.9672 27.6023 75.2285C27.9886 75.4861 28.2898 75.8479 28.5057 76.3138H28.5966C28.8201 75.863 29.1553 75.5051 29.6023 75.2399C30.0492 74.971 30.5852 74.8365 31.2102 74.8365C31.9905 74.8365 32.6288 75.0808 33.125 75.5695C33.6212 76.0543 33.8693 76.81 33.8693 77.8365V83.6774H32.5284V77.8365C32.5284 77.1926 32.3523 76.7323 32 76.4558C31.6477 76.1793 31.233 76.041 30.7557 76.041C30.142 76.041 29.6667 76.2267 29.3295 76.5979C28.9924 76.9653 28.8239 77.4312 28.8239 77.9956V83.6774H27.4602V77.7001C27.4602 77.2039 27.2992 76.8043 26.9773 76.5013C26.6553 76.1945 26.2405 76.041 25.733 76.041C25.3845 76.041 25.0587 76.1339 24.7557 76.3195C24.4564 76.5051 24.214 76.7626 24.0284 77.0922C23.8466 77.4179 23.7557 77.7948 23.7557 78.2229V83.6774H22.4148ZM36.321 86.9501V74.9501H37.6165V76.3365H37.7756C37.8741 76.185 38.0104 75.9918 38.1847 75.757C38.3627 75.5183 38.6165 75.3062 38.946 75.1206C39.2794 74.9312 39.7301 74.8365 40.2983 74.8365C41.0331 74.8365 41.6809 75.0202 42.2415 75.3876C42.8021 75.7551 43.2396 76.2759 43.554 76.9501C43.8684 77.6244 44.0256 78.4198 44.0256 79.3365C44.0256 80.2607 43.8684 81.0619 43.554 81.7399C43.2396 82.4142 42.804 82.9369 42.2472 83.3081C41.6903 83.6755 41.0483 83.8592 40.321 83.8592C39.7604 83.8592 39.3116 83.7664 38.9744 83.5808C38.6373 83.3914 38.3778 83.1774 38.196 82.9388C38.0142 82.6964 37.8741 82.4956 37.7756 82.3365H37.6619V86.9501H36.321ZM37.6392 79.3138C37.6392 79.9729 37.7358 80.5543 37.929 81.0581C38.1222 81.5581 38.4044 81.9501 38.7756 82.2342C39.1468 82.5145 39.6013 82.6547 40.1392 82.6547C40.6998 82.6547 41.1676 82.507 41.5426 82.2115C41.9214 81.9123 42.2055 81.5107 42.3949 81.007C42.5881 80.4994 42.6847 79.935 42.6847 79.3138C42.6847 78.7001 42.59 78.1471 42.4006 77.6547C42.215 77.1585 41.9328 76.7664 41.554 76.4785C41.179 76.1869 40.7074 76.041 40.1392 76.041C39.5938 76.041 39.1354 76.1793 38.7642 76.4558C38.393 76.7286 38.1127 77.1111 37.9233 77.6035C37.7339 78.0922 37.6392 78.6623 37.6392 79.3138ZM48.6392 83.882C48.0862 83.882 47.5843 83.7778 47.1335 83.5695C46.6828 83.3573 46.3248 83.0524 46.0597 82.6547C45.7945 82.2532 45.6619 81.7683 45.6619 81.2001C45.6619 80.7001 45.7604 80.2948 45.9574 79.9842C46.1544 79.6698 46.4176 79.4236 46.7472 79.2456C47.0767 79.0676 47.4403 78.935 47.8381 78.8479C48.2396 78.757 48.643 78.685 49.0483 78.632C49.5786 78.5638 50.0085 78.5126 50.3381 78.4785C50.6714 78.4407 50.9138 78.3782 51.0653 78.291C51.2206 78.2039 51.2983 78.0524 51.2983 77.8365V77.791C51.2983 77.2304 51.1449 76.7948 50.8381 76.4842C50.535 76.1736 50.0748 76.0183 49.4574 76.0183C48.8172 76.0183 48.3153 76.1585 47.9517 76.4388C47.5881 76.7191 47.3324 77.0183 47.1847 77.3365L45.9119 76.882C46.1392 76.3517 46.4422 75.9388 46.821 75.6433C47.2036 75.3441 47.6203 75.1357 48.071 75.0183C48.5256 74.8971 48.9725 74.8365 49.4119 74.8365C49.6922 74.8365 50.0142 74.8706 50.3778 74.9388C50.7453 75.0032 51.0994 75.1376 51.4403 75.3422C51.785 75.5467 52.071 75.8554 52.2983 76.2683C52.5256 76.6812 52.6392 77.2342 52.6392 77.9274V83.6774H51.2983V82.4956H51.2301C51.1392 82.685 50.9877 82.8876 50.7756 83.1036C50.5634 83.3195 50.2813 83.5032 49.929 83.6547C49.5767 83.8062 49.1468 83.882 48.6392 83.882ZM48.8438 82.6774C49.3741 82.6774 49.821 82.5732 50.1847 82.3649C50.5521 82.1566 50.8286 81.8876 51.0142 81.5581C51.2036 81.2286 51.2983 80.882 51.2983 80.5183V79.291C51.2415 79.3592 51.1165 79.4217 50.9233 79.4785C50.7339 79.5316 50.5142 79.5789 50.2642 79.6206C50.018 79.6585 49.7775 79.6926 49.5426 79.7229C49.3116 79.7494 49.1241 79.7721 48.9801 79.7911C48.6316 79.8365 48.3059 79.9104 48.0028 80.0126C47.7036 80.1111 47.4612 80.2607 47.2756 80.4615C47.0938 80.6585 47.0028 80.9274 47.0028 81.2683C47.0028 81.7342 47.1752 82.0865 47.5199 82.3251C47.8684 82.56 48.3097 82.6774 48.8438 82.6774ZM56.4276 78.4274V83.6774H55.0866V74.9501H56.3821V76.3138H56.4957C56.7003 75.8706 57.0109 75.5145 57.4276 75.2456C57.8442 74.9729 58.3821 74.8365 59.0412 74.8365C59.6321 74.8365 60.1491 74.9577 60.5923 75.2001C61.0355 75.4388 61.3802 75.8024 61.6264 76.291C61.8726 76.7759 61.9957 77.3895 61.9957 78.132V83.6774H60.6548V78.2229C60.6548 77.5373 60.4768 77.0032 60.1207 76.6206C59.7647 76.2342 59.276 76.041 58.6548 76.041C58.2268 76.041 57.8442 76.1339 57.5071 76.3195C57.1738 76.5051 56.9105 76.7759 56.7173 77.132C56.5241 77.488 56.4276 77.9198 56.4276 78.4274ZM64.9972 86.9501C64.7699 86.9501 64.5672 86.9312 64.3892 86.8933C64.2112 86.8592 64.0881 86.8251 64.0199 86.7911L64.3608 85.6092C64.6866 85.6926 64.9744 85.7229 65.2244 85.7001C65.4744 85.6774 65.696 85.5657 65.8892 85.3649C66.0862 85.1679 66.2661 84.8479 66.429 84.4047L66.679 83.7229L63.4517 74.9501H64.9062L67.3153 81.9047H67.4062L69.8153 74.9501H71.2699L67.5653 84.9501C67.3987 85.4009 67.1922 85.774 66.946 86.0695C66.6998 86.3687 66.4138 86.5903 66.0881 86.7342C65.7661 86.8782 65.4025 86.9501 64.9972 86.9501ZM86.9489 72.041V83.6774H85.5852L79.2443 74.541H79.1307V83.6774H77.7216V72.041H79.0852L85.4489 81.2001H85.5625V72.041H86.9489ZM92.1548 83.882C91.6018 83.882 91.0999 83.7778 90.6491 83.5695C90.1984 83.3573 89.8404 83.0524 89.5753 82.6547C89.3101 82.2532 89.1776 81.7683 89.1776 81.2001C89.1776 80.7001 89.276 80.2948 89.473 79.9842C89.67 79.6698 89.9332 79.4236 90.2628 79.2456C90.5923 79.0676 90.956 78.935 91.3537 78.8479C91.7552 78.757 92.1586 78.685 92.5639 78.632C93.0942 78.5638 93.5241 78.5126 93.8537 78.4785C94.187 78.4407 94.4295 78.3782 94.581 78.291C94.7363 78.2039 94.8139 78.0524 94.8139 77.8365V77.791C94.8139 77.2304 94.6605 76.7948 94.3537 76.4842C94.0507 76.1736 93.5904 76.0183 92.973 76.0183C92.3329 76.0183 91.831 76.1585 91.4673 76.4388C91.1037 76.7191 90.848 77.0183 90.7003 77.3365L89.4276 76.882C89.6548 76.3517 89.9579 75.9388 90.3366 75.6433C90.7192 75.3441 91.1359 75.1357 91.5866 75.0183C92.0412 74.8971 92.4882 74.8365 92.9276 74.8365C93.2079 74.8365 93.5298 74.8706 93.8935 74.9388C94.2609 75.0032 94.6151 75.1376 94.956 75.3422C95.3007 75.5467 95.5866 75.8554 95.8139 76.2683C96.0412 76.6812 96.1548 77.2342 96.1548 77.9274V83.6774H94.8139V82.4956H94.7457C94.6548 82.685 94.5033 82.8876 94.2912 83.1036C94.0791 83.3195 93.7969 83.5032 93.4446 83.6547C93.0923 83.8062 92.6624 83.882 92.1548 83.882ZM92.3594 82.6774C92.8897 82.6774 93.3366 82.5732 93.7003 82.3649C94.0677 82.1566 94.3442 81.8876 94.5298 81.5581C94.7192 81.2286 94.8139 80.882 94.8139 80.5183V79.291C94.7571 79.3592 94.6321 79.4217 94.4389 79.4785C94.2495 79.5316 94.0298 79.5789 93.7798 79.6206C93.5336 79.6585 93.2931 79.6926 93.0582 79.7229C92.8272 79.7494 92.6397 79.7721 92.4957 79.7911C92.1473 79.8365 91.8215 79.9104 91.5185 80.0126C91.2192 80.1111 90.9768 80.2607 90.7912 80.4615C90.6094 80.6585 90.5185 80.9274 90.5185 81.2683C90.5185 81.7342 90.6908 82.0865 91.0355 82.3251C91.384 82.56 91.8253 82.6774 92.3594 82.6774ZM98.6023 83.6774V74.9501H99.8977V76.3138H100.011C100.193 75.8479 100.487 75.4861 100.892 75.2285C101.297 74.9672 101.784 74.8365 102.352 74.8365C102.928 74.8365 103.407 74.9672 103.79 75.2285C104.176 75.4861 104.477 75.8479 104.693 76.3138H104.784C105.008 75.863 105.343 75.5051 105.79 75.2399C106.237 74.971 106.773 74.8365 107.398 74.8365C108.178 74.8365 108.816 75.0808 109.312 75.5695C109.809 76.0543 110.057 76.81 110.057 77.8365V83.6774H108.716V77.8365C108.716 77.1926 108.54 76.7323 108.188 76.4558C107.835 76.1793 107.42 76.041 106.943 76.041C106.33 76.041 105.854 76.2267 105.517 76.5979C105.18 76.9653 105.011 77.4312 105.011 77.9956V83.6774H103.648V77.7001C103.648 77.2039 103.487 76.8043 103.165 76.5013C102.843 76.1945 102.428 76.041 101.92 76.041C101.572 76.041 101.246 76.1339 100.943 76.3195C100.644 76.5051 100.402 76.7626 100.216 77.0922C100.034 77.4179 99.9432 77.7948 99.9432 78.2229V83.6774H98.6023ZM116.168 83.8592C115.327 83.8592 114.601 83.6736 113.991 83.3024C113.385 82.9274 112.918 82.4047 112.588 81.7342C112.262 81.06 112.099 80.2759 112.099 79.382C112.099 78.488 112.262 77.7001 112.588 77.0183C112.918 76.3327 113.376 75.7986 113.963 75.416C114.554 75.0297 115.243 74.8365 116.031 74.8365C116.486 74.8365 116.935 74.9123 117.378 75.0638C117.821 75.2153 118.224 75.4615 118.588 75.8024C118.952 76.1395 119.241 76.5865 119.457 77.1433C119.673 77.7001 119.781 78.3857 119.781 79.2001V79.7683H113.054V78.6092H118.418C118.418 78.1168 118.319 77.6774 118.122 77.291C117.929 76.9047 117.652 76.5998 117.293 76.3763C116.937 76.1528 116.516 76.041 116.031 76.041C115.497 76.041 115.035 76.1736 114.645 76.4388C114.259 76.7001 113.961 77.0411 113.753 77.4615C113.545 77.882 113.44 78.3327 113.44 78.8138V79.5865C113.44 80.2456 113.554 80.8043 113.781 81.2626C114.012 81.7172 114.332 82.0638 114.741 82.3024C115.151 82.5373 115.626 82.6547 116.168 82.6547C116.52 82.6547 116.838 82.6054 117.122 82.507C117.41 82.4047 117.658 82.2532 117.866 82.0524C118.075 81.8479 118.236 81.5941 118.349 81.2911L119.645 81.6547C119.509 82.0941 119.279 82.4804 118.957 82.8138C118.635 83.1433 118.238 83.4009 117.764 83.5865C117.291 83.7683 116.759 83.8592 116.168 83.8592Z" fill="url(#paint0_linear_1_3894)"/>
<path d="M84.2982 4.50915C74.6002 -0.451786 63.1479 -0.512022 52.3195 0.6756C43.995 1.58881 35.2681 3.40036 29.0936 9.05737C20.5541 16.8814 19.8856 30.474 26.4067 39.6819C31.8384 47.3528 40.1346 52.1144 49.5917 52.3077C54.7557 52.4126 60.2178 52.4044 65.6213 51.9203C70.403 55.9286 75.184 59.9377 79.9657 63.946C79.1291 59.3665 78.2924 54.7864 77.4558 50.2069C77.4372 50.1043 77.4157 49.9994 77.3956 49.8953C79.1105 49.4261 80.7934 48.8817 82.422 48.2288C90.0326 45.179 96.9181 39.1286 98.7854 31.1455C101.266 20.538 93.9963 9.47009 84.2982 4.50915Z" fill="url(#paint1_linear_1_3894)"/>
<path d="M42.736 19.6772C40.4805 19.6772 38.3194 21.6605 38.4235 23.9896C38.5284 26.3262 40.3184 28.3021 42.736 28.3021C44.9915 28.3021 47.1526 26.3188 47.0485 23.9896C46.9436 21.6531 45.1536 19.6772 42.736 19.6772Z" fill="white"/>
<path d="M78.5739 19.6772C76.3184 19.6772 74.1573 21.6605 74.2614 23.9896C74.3663 26.3262 76.1563 28.3021 78.5739 28.3021C80.8294 28.3021 82.9905 26.3188 82.8864 23.9896C82.7815 21.6531 80.9915 19.6772 78.5739 19.6772Z" fill="white"/>
<path d="M67.1833 40.8244C65.374 41.9875 63.471 42.5155 61.5412 42.6033C61.5509 42.5653 61.5709 42.5319 61.5754 42.4925C61.7925 40.5233 61.597 38.4648 61.5933 36.4785C61.591 35.3563 61.6185 34.2327 61.5345 33.1194C61.7777 33.1254 62.0037 33.1157 62.1904 33.0763C63.935 32.7015 67.3811 31.4082 67.5537 29.2524C67.7544 26.7507 64.9754 26.9374 63.2836 26.9627C61.4691 26.9894 55.5124 26.2078 55.2551 28.9378C55.087 30.7226 57.7567 32.2791 59.9765 32.8703C59.7973 34.2014 59.8204 35.5645 59.8048 36.9083C59.7832 38.7913 59.6679 40.7062 59.9156 42.5743C58.1561 42.43 56.3884 41.9593 54.6579 41.2334C54.292 41.0803 53.9797 41.6506 54.2712 41.8975C58.2014 45.2209 63.8138 44.861 68.0489 42.3051C68.9956 41.7347 68.1129 40.2265 67.1833 40.8244Z" fill="white"/>
<path d="M18.1437 14.4735C17.0364 15.5756 16.1485 16.9246 15.5082 18.3517C14.5912 20.3938 13.6751 22.4366 12.7581 24.4794C11.3229 27.6772 9.85786 31.0236 10.0111 34.5255C10.1643 38.0274 12.4837 41.7033 15.9596 42.1577C17.8812 42.409 19.959 41.5412 20.9599 39.8821C22.1751 37.869 21.6605 35.3153 21.2946 32.9921C20.4959 27.9181 20.342 22.1183 22.0784 17.2154C22.7232 15.3949 23.3679 13.5737 24.0126 11.7532C21.6731 11.8722 19.6927 12.9319 18.1437 14.4735Z" fill="url(#paint2_linear_1_3894)"/>
<path d="M106.497 18.3516C107.414 20.3937 108.33 22.4366 109.247 24.4794C110.682 27.6771 112.147 31.0236 111.994 34.5255C111.84 38.0273 109.521 41.7032 106.046 42.1576C104.124 42.409 102.046 41.5411 101.045 39.882C99.83 37.8689 100.345 35.3152 100.711 32.992C101.475 28.1374 101.868 22.1376 99.3787 17.6995C98.3212 15.8135 96.9343 14.1329 95.8084 12.2864C95.4194 11.6483 95.1026 10.7202 95.6782 10.2436C95.9712 10.0004 96.3899 9.99219 96.7699 10.019C101.522 10.3499 104.687 14.3181 106.497 18.3516Z" fill="url(#paint3_linear_1_3894)"/>
<path d="M95.5261 24.8898C94.9364 17.4941 90.7578 10.4733 83.7146 7.64141C82.9397 7.32981 82.4333 8.58808 83.1502 8.97999C89.0184 12.1859 92.8847 17.7611 93.5681 24.4644C94.1459 30.1378 92.7173 38.3954 86.4044 40.3311C85.2332 40.6903 85.7322 42.5338 86.9124 42.1731C93.9637 40.0165 96.0474 31.4206 95.5261 24.8898Z" fill="white"/>
<path d="M79.9473 7.12464C79.9324 7.04804 79.9064 6.97293 79.8715 6.89857C79.957 6.13335 79.1129 5.60088 78.4132 6.15937C77.6457 6.7714 78.0569 7.83855 78.8861 8.10701C79.2974 8.24013 79.6476 7.99992 79.8469 7.66825C80.0247 7.52919 80.0722 7.29643 79.9473 7.12464Z" fill="white"/>
<defs>
<linearGradient id="paint0_linear_1_3894" x1="60.5" y1="68.6774" x2="60.5" y2="87.6774" gradientUnits="userSpaceOnUse">
<stop stop-color="#F87537"/>
<stop offset="1" stop-color="#FBA81F"/>
</linearGradient>
<linearGradient id="paint1_linear_1_3894" x1="60.6535" y1="0.0384521" x2="60.6535" y2="63.946" gradientUnits="userSpaceOnUse">
<stop stop-color="#F87537"/>
<stop offset="1" stop-color="#FBA81F"/>
</linearGradient>
<linearGradient id="paint2_linear_1_3894" x1="17.0063" y1="11.7532" x2="17.0063" y2="42.2005" gradientUnits="userSpaceOnUse">
<stop stop-color="#F87537"/>
<stop offset="1" stop-color="#FBA81F"/>
</linearGradient>
<linearGradient id="paint3_linear_1_3894" x1="103.684" y1="10.0085" x2="103.684" y2="42.2004" gradientUnits="userSpaceOnUse">
<stop stop-color="#F87537"/>
<stop offset="1" stop-color="#FBA81F"/>
</linearGradient>
</defs>
</svg>
