<svg width="125" height="110" viewBox="0 0 125 110" fill="none" xmlns="http://www.w3.org/2000/svg">
<path d="M11.7591 97.005H10.35C10.2666 96.5997 10.1208 96.2436 9.91247 95.9368C9.70792 95.63 9.45792 95.3724 9.16247 95.1641C8.8708 94.952 8.54693 94.7929 8.19087 94.6868C7.83481 94.5807 7.4636 94.5277 7.07724 94.5277C6.37269 94.5277 5.73443 94.7057 5.16246 95.0618C4.59428 95.4179 4.14163 95.9425 3.80451 96.6357C3.47118 97.3289 3.30451 98.1792 3.30451 99.1868C3.30451 100.194 3.47118 101.045 3.80451 101.738C4.14163 102.431 4.59428 102.956 5.16246 103.312C5.73443 103.668 6.37269 103.846 7.07724 103.846C7.4636 103.846 7.83481 103.793 8.19087 103.687C8.54693 103.581 8.8708 103.424 9.16247 103.215C9.45792 103.003 9.70792 102.744 9.91247 102.437C10.1208 102.126 10.2666 101.77 10.35 101.369H11.7591C11.653 101.963 11.4598 102.496 11.1795 102.965C10.8992 103.435 10.5507 103.835 10.1341 104.164C9.71739 104.49 9.24959 104.738 8.73065 104.908C8.21549 105.079 7.66436 105.164 7.07724 105.164C6.08481 105.164 5.20224 104.922 4.42951 104.437C3.65678 103.952 3.04883 103.263 2.60565 102.369C2.16246 101.475 1.94087 100.414 1.94087 99.1868C1.94087 97.9595 2.16246 96.8989 2.60565 96.005C3.04883 95.1111 3.65678 94.4217 4.42951 93.9368C5.20224 93.452 6.08481 93.2095 7.07724 93.2095C7.66436 93.2095 8.21549 93.2948 8.73065 93.4652C9.24959 93.6357 9.71739 93.8857 10.1341 94.2152C10.5507 94.541 10.8992 94.9387 11.1795 95.4084C11.4598 95.8743 11.653 96.4065 11.7591 97.005ZM17.3997 105.187C16.6118 105.187 15.9205 104.999 15.3258 104.624C14.7349 104.249 14.2728 103.725 13.9395 103.05C13.6099 102.376 13.4451 101.588 13.4451 100.687C13.4451 99.7777 13.6099 98.9842 13.9395 98.3061C14.2728 97.6281 14.7349 97.1016 15.3258 96.7266C15.9205 96.3516 16.6118 96.1641 17.3997 96.1641C18.1876 96.1641 18.877 96.3516 19.4679 96.7266C20.0626 97.1016 20.5247 97.6281 20.8542 98.3061C21.1876 98.9842 21.3542 99.7777 21.3542 100.687C21.3542 101.588 21.1876 102.376 20.8542 103.05C20.5247 103.725 20.0626 104.249 19.4679 104.624C18.877 104.999 18.1876 105.187 17.3997 105.187ZM17.3997 103.982C17.9982 103.982 18.4906 103.829 18.877 103.522C19.2633 103.215 19.5493 102.812 19.7349 102.312C19.9205 101.812 20.0133 101.27 20.0133 100.687C20.0133 100.103 19.9205 99.5599 19.7349 99.0561C19.5493 98.5523 19.2633 98.1451 18.877 97.8345C18.4906 97.5239 17.9982 97.3686 17.3997 97.3686C16.8012 97.3686 16.3088 97.5239 15.9224 97.8345C15.536 98.1451 15.2501 98.5523 15.0645 99.0561C14.8788 99.5599 14.786 100.103 14.786 100.687C14.786 101.27 14.8788 101.812 15.0645 102.312C15.2501 102.812 15.536 103.215 15.9224 103.522C16.3088 103.829 16.8012 103.982 17.3997 103.982ZM23.4011 105.005V96.2777H24.6966V97.6414H24.8102C24.992 97.1754 25.2856 96.8137 25.6909 96.5561C26.0962 96.2948 26.5829 96.1641 27.1511 96.1641C27.7269 96.1641 28.206 96.2948 28.5886 96.5561C28.975 96.8137 29.2761 97.1754 29.492 97.6414H29.5829C29.8064 97.1906 30.1416 96.8326 30.5886 96.5675C31.0356 96.2986 31.5716 96.1641 32.1966 96.1641C32.9769 96.1641 33.6151 96.4084 34.1113 96.897C34.6075 97.3819 34.8556 98.1376 34.8556 99.1641V105.005H33.5147V99.1641C33.5147 98.5201 33.3386 98.0599 32.9863 97.7834C32.6341 97.5069 32.2193 97.3686 31.742 97.3686C31.1284 97.3686 30.653 97.5542 30.3159 97.9254C29.9788 98.2929 29.8102 98.7588 29.8102 99.3232V105.005H28.4466V99.0277C28.4466 98.5315 28.2856 98.1319 27.9636 97.8289C27.6416 97.522 27.2269 97.3686 26.7193 97.3686C26.3708 97.3686 26.045 97.4614 25.742 97.647C25.4428 97.8326 25.2003 98.0902 25.0147 98.4198C24.8329 98.7455 24.742 99.1224 24.742 99.5504V105.005H23.4011ZM37.3074 108.278V96.2777H38.6028V97.6641H38.7619C38.8604 97.5126 38.9967 97.3194 39.171 97.0845C39.349 96.8459 39.6028 96.6338 39.9324 96.4482C40.2657 96.2588 40.7164 96.1641 41.2846 96.1641C42.0195 96.1641 42.6672 96.3478 43.2278 96.7152C43.7884 97.0826 44.2259 97.6035 44.5403 98.2777C44.8547 98.952 45.0119 99.7474 45.0119 100.664C45.0119 101.588 44.8547 102.389 44.5403 103.067C44.2259 103.742 43.7903 104.264 43.2335 104.636C42.6767 105.003 42.0346 105.187 41.3074 105.187C40.7467 105.187 40.2979 105.094 39.9608 104.908C39.6236 104.719 39.3642 104.505 39.1824 104.266C39.0005 104.024 38.8604 103.823 38.7619 103.664H38.6483V108.278H37.3074ZM38.6255 100.641C38.6255 101.3 38.7221 101.882 38.9153 102.386C39.1085 102.886 39.3907 103.278 39.7619 103.562C40.1331 103.842 40.5877 103.982 41.1255 103.982C41.6861 103.982 42.1539 103.835 42.5289 103.539C42.9077 103.24 43.1918 102.838 43.3812 102.335C43.5744 101.827 43.671 101.263 43.671 100.641C43.671 100.028 43.5763 99.4747 43.3869 98.9823C43.2013 98.4861 42.9191 98.094 42.5403 97.8061C42.1653 97.5145 41.6937 97.3686 41.1255 97.3686C40.5801 97.3686 40.1217 97.5069 39.7505 97.7834C39.3793 98.0561 39.099 98.4387 38.9096 98.9311C38.7202 99.4198 38.6255 99.9898 38.6255 100.641ZM49.6255 105.21C49.0725 105.21 48.5706 105.105 48.1199 104.897C47.6691 104.685 47.3111 104.38 47.046 103.982C46.7808 103.581 46.6483 103.096 46.6483 102.528C46.6483 102.028 46.7467 101.622 46.9437 101.312C47.1407 100.997 47.4039 100.751 47.7335 100.573C48.063 100.395 48.4267 100.263 48.8244 100.175C49.2259 100.085 49.6293 100.013 50.0346 99.9595C50.5649 99.8914 50.9949 99.8402 51.3244 99.8061C51.6577 99.7682 51.9002 99.7057 52.0517 99.6186C52.207 99.5315 52.2846 99.38 52.2846 99.1641V99.1186C52.2846 98.558 52.1312 98.1224 51.8244 97.8118C51.5214 97.5012 51.0611 97.3459 50.4437 97.3459C49.8036 97.3459 49.3017 97.4861 48.938 97.7664C48.5744 98.0467 48.3187 98.3459 48.171 98.6641L46.8983 98.2095C47.1255 97.6792 47.4286 97.2664 47.8074 96.9709C48.1899 96.6717 48.6066 96.4633 49.0574 96.3459C49.5119 96.2247 49.9589 96.1641 50.3983 96.1641C50.6786 96.1641 51.0005 96.1982 51.3642 96.2664C51.7316 96.3307 52.0858 96.4652 52.4267 96.6698C52.7714 96.8743 53.0574 97.183 53.2846 97.5959C53.5119 98.0088 53.6255 98.5618 53.6255 99.255V105.005H52.2846V103.823H52.2164C52.1255 104.013 51.974 104.215 51.7619 104.431C51.5498 104.647 51.2676 104.831 50.9153 104.982C50.563 105.134 50.1331 105.21 49.6255 105.21ZM49.8301 104.005C50.3604 104.005 50.8074 103.901 51.171 103.692C51.5384 103.484 51.8149 103.215 52.0005 102.886C52.1899 102.556 52.2846 102.21 52.2846 101.846V100.619C52.2278 100.687 52.1028 100.749 51.9096 100.806C51.7202 100.859 51.5005 100.907 51.2505 100.948C51.0043 100.986 50.7638 101.02 50.5289 101.05C50.2979 101.077 50.1104 101.1 49.9664 101.119C49.618 101.164 49.2922 101.238 48.9892 101.34C48.6899 101.439 48.4475 101.588 48.2619 101.789C48.0801 101.986 47.9892 102.255 47.9892 102.596C47.9892 103.062 48.1615 103.414 48.5062 103.653C48.8547 103.888 49.296 104.005 49.8301 104.005ZM57.4139 99.755V105.005H56.073V96.2777H57.3684V97.6414H57.4821C57.6866 97.1982 57.9972 96.8421 58.4139 96.5732C58.8306 96.3004 59.3684 96.1641 60.0275 96.1641C60.6184 96.1641 61.1355 96.2853 61.5787 96.5277C62.0218 96.7664 62.3665 97.13 62.6127 97.6186C62.859 98.1035 62.9821 98.7171 62.9821 99.4595V105.005H61.6412V99.5504C61.6412 98.8648 61.4631 98.3307 61.1071 97.9482C60.751 97.5618 60.2624 97.3686 59.6412 97.3686C59.2131 97.3686 58.8306 97.4614 58.4934 97.647C58.1601 97.8326 57.8968 98.1035 57.7037 98.4595C57.5105 98.8156 57.4139 99.2474 57.4139 99.755ZM65.9835 108.278C65.7562 108.278 65.5536 108.259 65.3755 108.221C65.1975 108.187 65.0744 108.153 65.0062 108.119L65.3471 106.937C65.6729 107.02 65.9608 107.05 66.2108 107.028C66.4608 107.005 66.6824 106.893 66.8755 106.692C67.0725 106.496 67.2524 106.175 67.4153 105.732L67.6653 105.05L64.438 96.2777H65.8926L68.3017 103.232H68.3926L70.8017 96.2777H72.2562L68.5517 106.278C68.385 106.728 68.1786 107.102 67.9324 107.397C67.6861 107.696 67.4002 107.918 67.0744 108.062C66.7524 108.206 66.3888 108.278 65.9835 108.278ZM87.9352 93.3686V105.005H86.5716L80.2306 95.8686H80.117V105.005H78.7079V93.3686H80.0716L86.4352 102.528H86.5488V93.3686H87.9352ZM93.1412 105.21C92.5881 105.21 92.0862 105.105 91.6355 104.897C91.1847 104.685 90.8268 104.38 90.5616 103.982C90.2965 103.581 90.1639 103.096 90.1639 102.528C90.1639 102.028 90.2624 101.622 90.4593 101.312C90.6563 100.997 90.9196 100.751 91.2491 100.573C91.5787 100.395 91.9423 100.263 92.34 100.175C92.7415 100.085 93.1449 100.013 93.5502 99.9595C94.0806 99.8914 94.5105 99.8402 94.84 99.8061C95.1734 99.7682 95.4158 99.7057 95.5673 99.6186C95.7226 99.5315 95.8002 99.38 95.8002 99.1641V99.1186C95.8002 98.558 95.6468 98.1224 95.34 97.8118C95.037 97.5012 94.5768 97.3459 93.9593 97.3459C93.3192 97.3459 92.8173 97.4861 92.4537 97.7664C92.09 98.0467 91.8343 98.3459 91.6866 98.6641L90.4139 98.2095C90.6412 97.6792 90.9442 97.2664 91.323 96.9709C91.7056 96.6717 92.1222 96.4633 92.573 96.3459C93.0275 96.2247 93.4745 96.1641 93.9139 96.1641C94.1942 96.1641 94.5162 96.1982 94.8798 96.2664C95.2472 96.3307 95.6014 96.4652 95.9423 96.6698C96.287 96.8743 96.573 97.183 96.8002 97.5959C97.0275 98.0088 97.1412 98.5618 97.1412 99.255V105.005H95.8002V103.823H95.7321C95.6412 104.013 95.4896 104.215 95.2775 104.431C95.0654 104.647 94.7832 104.831 94.4309 104.982C94.0787 105.134 93.6487 105.21 93.1412 105.21ZM93.3457 104.005C93.876 104.005 94.323 103.901 94.6866 103.692C95.054 103.484 95.3306 103.215 95.5162 102.886C95.7056 102.556 95.8002 102.21 95.8002 101.846V100.619C95.7434 100.687 95.6184 100.749 95.4252 100.806C95.2359 100.859 95.0162 100.907 94.7662 100.948C94.5199 100.986 94.2794 101.02 94.0446 101.05C93.8135 101.077 93.626 101.1 93.4821 101.119C93.1336 101.164 92.8078 101.238 92.5048 101.34C92.2056 101.439 91.9631 101.588 91.7775 101.789C91.5957 101.986 91.5048 102.255 91.5048 102.596C91.5048 103.062 91.6771 103.414 92.0218 103.653C92.3703 103.888 92.8116 104.005 93.3457 104.005ZM99.5886 105.005V96.2777H100.884V97.6414H100.998C101.18 97.1754 101.473 96.8137 101.878 96.5561C102.284 96.2948 102.77 96.1641 103.339 96.1641C103.914 96.1641 104.394 96.2948 104.776 96.5561C105.162 96.8137 105.464 97.1754 105.68 97.6414H105.77C105.994 97.1906 106.329 96.8326 106.776 96.5675C107.223 96.2986 107.759 96.1641 108.384 96.1641C109.164 96.1641 109.803 96.4084 110.299 96.897C110.795 97.3819 111.043 98.1376 111.043 99.1641V105.005H109.702V99.1641C109.702 98.5201 109.526 98.0599 109.174 97.7834C108.822 97.5069 108.407 97.3686 107.93 97.3686C107.316 97.3686 106.84 97.5542 106.503 97.9254C106.166 98.2929 105.998 98.7588 105.998 99.3232V105.005H104.634V99.0277C104.634 98.5315 104.473 98.1319 104.151 97.8289C103.829 97.522 103.414 97.3686 102.907 97.3686C102.558 97.3686 102.233 97.4614 101.93 97.647C101.63 97.8326 101.388 98.0902 101.202 98.4198C101.02 98.7455 100.93 99.1224 100.93 99.5504V105.005H99.5886ZM117.154 105.187C116.313 105.187 115.588 105.001 114.978 104.63C114.372 104.255 113.904 103.732 113.574 103.062C113.249 102.388 113.086 101.603 113.086 100.71C113.086 99.8156 113.249 99.0277 113.574 98.3459C113.904 97.6603 114.362 97.1262 114.949 96.7436C115.54 96.3573 116.23 96.1641 117.018 96.1641C117.472 96.1641 117.921 96.2398 118.364 96.3914C118.807 96.5429 119.211 96.7891 119.574 97.13C119.938 97.4671 120.228 97.9141 120.444 98.4709C120.66 99.0277 120.768 99.7133 120.768 100.528V101.096H114.04V99.9368H119.404C119.404 99.4444 119.305 99.005 119.108 98.6186C118.915 98.2323 118.639 97.9273 118.279 97.7039C117.923 97.4804 117.502 97.3686 117.018 97.3686C116.483 97.3686 116.021 97.5012 115.631 97.7664C115.245 98.0277 114.948 98.3686 114.739 98.7891C114.531 99.2095 114.427 99.6603 114.427 100.141V100.914C114.427 101.573 114.54 102.132 114.768 102.59C114.999 103.045 115.319 103.391 115.728 103.63C116.137 103.865 116.612 103.982 117.154 103.982C117.506 103.982 117.824 103.933 118.108 103.835C118.396 103.732 118.644 103.581 118.853 103.38C119.061 103.175 119.222 102.922 119.336 102.619L120.631 102.982C120.495 103.422 120.266 103.808 119.944 104.141C119.622 104.471 119.224 104.728 118.751 104.914C118.277 105.096 117.745 105.187 117.154 105.187Z" fill="url(#paint0_linear_1_3941)"/>
<path d="M97.4745 70.033C97.2289 70.4445 96.7 71.3569 95.9937 72.5437C92.9139 77.6833 86.4208 88.0989 84.136 86.9417C75.5149 82.3909 66.0496 79.7817 56.7321 76.8587C55.1527 76.3684 53.5841 75.8683 52.0245 75.3484C40.588 71.5229 31.7124 66.3052 22.8261 58.2919C14.8128 51.0638 8.13325 43.756 9.88916 31.8687C12.0565 17.166 29.1722 4.76866 43.6391 9.61425C50.6422 11.9582 56.4093 16.9508 61.8134 21.9919C61.0775 13.5663 66.5801 5.16123 74.338 1.80709C79.2912 -0.340574 84.931 -0.507297 90.1387 0.953772C93.0913 1.77752 95.9058 3.13102 98.3779 4.94607C105.204 9.9477 109.392 18.1187 110.285 26.5336C111.863 41.4128 104.968 57.547 97.4745 70.033Z" fill="url(#paint1_linear_1_3941)"/>
<path d="M95.994 72.5439C92.9142 77.6835 86.4211 88.0991 84.1363 86.9419C75.5153 82.3911 66.0499 79.7819 56.7324 76.8589C56.6446 75.9761 56.5559 75.1031 56.4581 74.221C56.2618 72.4068 56.0458 70.5433 55.1933 68.9245C54.3794 67.3846 53.0547 66.1978 51.7604 65.0308C48.4842 62.098 45.5325 59.8714 41.9131 57.5373C39.3236 55.8701 37.1562 53.6535 35.0184 51.4467C31.9189 48.2593 28.8103 45.7675 28.5253 41.0599C28.4662 40.0793 31.2422 30.5458 32.5759 31.7522C33.8021 32.87 35.3609 33.5468 37.0487 33.3899C38.6962 33.233 40.2558 32.2918 41.1485 30.8989C44.8074 33.2232 49.0641 34.6062 53.389 34.9002C57.8223 35.2041 61.3629 32.291 65.5802 31.2225C76.2709 28.5254 85.3436 38.2741 89.9436 46.9058C91.9936 50.77 93.3667 55.6156 93.7979 59.9405C94.248 64.4132 94.0517 68.5713 95.994 72.5439Z" fill="white"/>
<path d="M84.3498 42.8421C90.1366 46.4361 84.078 64.6341 83.2156 69.984C82.9429 71.675 82.6612 73.3964 81.8966 74.929C81.132 76.4615 79.7958 77.8051 78.1162 78.1443C75.0381 78.766 72.4181 76.004 70.4947 73.5221C67.4617 69.6095 64.2759 65.2435 64.4747 60.2969C64.6931 54.8657 68.8948 50.54 72.8263 46.7859C74.4139 45.2698 76.04 43.7275 78.0325 42.8068C80.0249 41.8853 82.4855 41.6841 84.3498 42.8421Z" fill="url(#paint2_linear_1_3941)"/>
<path d="M57.8725 39.4331C56.809 41.984 59.0765 43.8795 61.5634 43.4796C65.3241 42.8751 65.5023 37.9695 61.6964 37.3248C60.1475 37.062 58.477 37.9827 57.8725 39.4331Z" fill="url(#paint3_linear_1_3941)"/>
<path d="M37.4513 28.9961C37.485 28.831 37.4653 28.6749 37.6303 28.5205C37.8488 28.3169 38.1798 28.2618 38.4434 28.4154C38.6192 28.5181 38.7424 28.6314 38.8327 28.8154C39.0651 29.2901 38.8327 29.865 38.28 29.9389C37.7264 30.0145 37.3454 29.5184 37.4513 28.9961Z" fill="white"/>
<path d="M33.3388 29.9504C33.6945 28.8179 35.3978 28.1264 36.4499 28.629C36.7505 28.7727 36.7669 29.3057 36.4499 29.4445C36.0729 29.6096 35.6729 29.7032 35.3124 29.9061C34.9248 30.1237 34.6817 30.467 34.3186 30.7044C33.8349 31.0198 33.168 30.4949 33.3388 29.9504Z" fill="white"/>
<path d="M61.3282 38.1378C61.7972 38.0162 62.3466 38.155 62.556 38.6322C62.7351 39.0404 62.6759 39.5184 62.2595 39.7615C61.9433 39.9463 61.4407 39.8765 61.2099 39.5627C60.6293 39.2597 60.6153 38.3226 61.3282 38.1378Z" fill="white"/>
<defs>
<linearGradient id="paint0_linear_1_3941" x1="62.9935" y1="90.005" x2="62.9935" y2="109.716" gradientUnits="userSpaceOnUse">
<stop stop-color="#F87537"/>
<stop offset="1" stop-color="#FBA81F"/>
</linearGradient>
<linearGradient id="paint1_linear_1_3941" x1="60.0593" y1="0" x2="60.0593" y2="87.0307" gradientUnits="userSpaceOnUse">
<stop stop-color="#F87537"/>
<stop offset="1" stop-color="#FBA81F"/>
</linearGradient>
<linearGradient id="paint2_linear_1_3941" x1="75.6454" y1="42.0434" x2="75.6454" y2="78.233" gradientUnits="userSpaceOnUse">
<stop stop-color="#F87537"/>
<stop offset="1" stop-color="#FBA81F"/>
</linearGradient>
<linearGradient id="paint3_linear_1_3941" x1="61.036" y1="37.2801" x2="61.036" y2="43.533" gradientUnits="userSpaceOnUse">
<stop stop-color="#F87537"/>
<stop offset="1" stop-color="#FBA81F"/>
</linearGradient>
</defs>
</svg>
