<svg width="122" height="99" viewBox="0 0 122 99" fill="none" xmlns="http://www.w3.org/2000/svg">
<path d="M11.0188 86.7692H9.60973C9.5264 86.3639 9.38056 86.0078 9.17223 85.701C8.96768 85.3942 8.71768 85.1366 8.42223 84.9283C8.13056 84.7161 7.8067 84.5571 7.45064 84.451C7.09458 84.3449 6.72337 84.2919 6.337 84.2919C5.63246 84.2919 4.9942 84.4699 4.42223 84.826C3.85405 85.1821 3.4014 85.7067 3.06428 86.3999C2.73094 87.093 2.56428 87.9434 2.56428 88.951C2.56428 89.9586 2.73094 90.8089 3.06428 91.5021C3.4014 92.1953 3.85405 92.7199 4.42223 93.076C4.9942 93.4321 5.63246 93.6101 6.337 93.6101C6.72337 93.6101 7.09458 93.5571 7.45064 93.451C7.8067 93.3449 8.13056 93.1877 8.42223 92.9794C8.71768 92.7673 8.96768 92.5078 9.17223 92.201C9.38056 91.8904 9.5264 91.5343 9.60973 91.1328H11.0188C10.9128 91.7275 10.7196 92.2597 10.4393 92.7294C10.159 93.1991 9.81049 93.5987 9.39382 93.9283C8.97716 94.254 8.50935 94.5021 7.99041 94.6726C7.47526 94.843 6.92412 94.9283 6.337 94.9283C5.34458 94.9283 4.462 94.6858 3.68928 94.201C2.91655 93.7161 2.30859 93.0267 1.86541 92.1328C1.42223 91.2389 1.20064 90.1783 1.20064 88.951C1.20064 87.7237 1.42223 86.6631 1.86541 85.7692C2.30859 84.8752 2.91655 84.1858 3.68928 83.701C4.462 83.2161 5.34458 82.9737 6.337 82.9737C6.92412 82.9737 7.47526 83.0589 7.99041 83.2294C8.50935 83.3999 8.97716 83.6499 9.39382 83.9794C9.81049 84.3052 10.159 84.7029 10.4393 85.1726C10.7196 85.6385 10.9128 86.1707 11.0188 86.7692ZM16.6594 94.951C15.8716 94.951 15.1803 94.7635 14.5856 94.3885C13.9947 94.0135 13.5326 93.4889 13.1992 92.8146C12.8697 92.1404 12.7049 91.3525 12.7049 90.451C12.7049 89.5419 12.8697 88.7483 13.1992 88.0703C13.5326 87.3923 13.9947 86.8658 14.5856 86.4908C15.1803 86.1158 15.8716 85.9283 16.6594 85.9283C17.4473 85.9283 18.1367 86.1158 18.7276 86.4908C19.3223 86.8658 19.7844 87.3923 20.114 88.0703C20.4473 88.7483 20.614 89.5419 20.614 90.451C20.614 91.3525 20.4473 92.1404 20.114 92.8146C19.7844 93.4889 19.3223 94.0135 18.7276 94.3885C18.1367 94.7635 17.4473 94.951 16.6594 94.951ZM16.6594 93.7464C17.2579 93.7464 17.7504 93.593 18.1367 93.2862C18.5231 92.9794 18.8091 92.576 18.9947 92.076C19.1803 91.576 19.2731 91.0343 19.2731 90.451C19.2731 89.8677 19.1803 89.3241 18.9947 88.8203C18.8091 88.3165 18.5231 87.9093 18.1367 87.5987C17.7504 87.2881 17.2579 87.1328 16.6594 87.1328C16.061 87.1328 15.5685 87.2881 15.1822 87.5987C14.7958 87.9093 14.5098 88.3165 14.3242 88.8203C14.1386 89.3241 14.0458 89.8677 14.0458 90.451C14.0458 91.0343 14.1386 91.576 14.3242 92.076C14.5098 92.576 14.7958 92.9794 15.1822 93.2862C15.5685 93.593 16.061 93.7464 16.6594 93.7464ZM22.6609 94.7692V86.0419H23.9563V87.4055H24.07C24.2518 86.9396 24.5453 86.5779 24.9506 86.3203C25.3559 86.0589 25.8427 85.9283 26.4109 85.9283C26.9866 85.9283 27.4658 86.0589 27.8484 86.3203C28.2347 86.5779 28.5359 86.9396 28.7518 87.4055H28.8427C29.0662 86.9548 29.4014 86.5968 29.8484 86.3317C30.2953 86.0627 30.8313 85.9283 31.4563 85.9283C32.2366 85.9283 32.8749 86.1726 33.3711 86.6612C33.8673 87.1461 34.1154 87.9017 34.1154 88.9283V94.7692H32.7745V88.9283C32.7745 88.2843 32.5984 87.8241 32.2461 87.5476C31.8938 87.2711 31.479 87.1328 31.0018 87.1328C30.3881 87.1328 29.9128 87.3184 29.5756 87.6896C29.2385 88.0571 29.07 88.523 29.07 89.0874V94.7692H27.7063V88.7919C27.7063 88.2957 27.5453 87.8961 27.2234 87.593C26.9014 87.2862 26.4866 87.1328 25.979 87.1328C25.6306 87.1328 25.3048 87.2256 25.0018 87.4112C24.7025 87.5968 24.4601 87.8544 24.2745 88.1839C24.0927 88.5097 24.0018 88.8866 24.0018 89.3146V94.7692H22.6609ZM36.5671 98.0419V86.0419H37.8626V87.4283H38.0217C38.1201 87.2767 38.2565 87.0836 38.4308 86.8487C38.6088 86.6101 38.8626 86.398 39.1921 86.2124C39.5254 86.023 39.9762 85.9283 40.5444 85.9283C41.2792 85.9283 41.927 86.112 42.4876 86.4794C43.0482 86.8468 43.4857 87.3677 43.8001 88.0419C44.1145 88.7161 44.2717 89.5116 44.2717 90.4283C44.2717 91.3525 44.1145 92.1536 43.8001 92.8317C43.4857 93.5059 43.0501 94.0286 42.4933 94.3999C41.9364 94.7673 41.2944 94.951 40.5671 94.951C40.0065 94.951 39.5576 94.8582 39.2205 94.6726C38.8834 94.4832 38.6239 94.2692 38.4421 94.0305C38.2603 93.7881 38.1201 93.5874 38.0217 93.4283H37.908V98.0419H36.5671ZM37.8853 90.4055C37.8853 91.0646 37.9819 91.6461 38.1751 92.1499C38.3683 92.6499 38.6504 93.0419 39.0217 93.326C39.3929 93.6063 39.8474 93.7464 40.3853 93.7464C40.9459 93.7464 41.4137 93.5987 41.7887 93.3033C42.1675 93.004 42.4516 92.6025 42.641 92.0987C42.8342 91.5911 42.9308 91.0267 42.9308 90.4055C42.9308 89.7919 42.8361 89.2389 42.6467 88.7464C42.4611 88.2502 42.1789 87.8582 41.8001 87.5703C41.4251 87.2786 40.9535 87.1328 40.3853 87.1328C39.8398 87.1328 39.3815 87.2711 39.0103 87.5476C38.6391 87.8203 38.3588 88.2029 38.1694 88.6953C37.98 89.1839 37.8853 89.754 37.8853 90.4055ZM48.8853 94.9737C48.3323 94.9737 47.8304 94.8696 47.3796 94.6612C46.9289 94.4491 46.5709 94.1442 46.3058 93.7464C46.0406 93.3449 45.908 92.8601 45.908 92.2919C45.908 91.7919 46.0065 91.3866 46.2035 91.076C46.4004 90.7616 46.6637 90.5154 46.9933 90.3374C47.3228 90.1593 47.6864 90.0267 48.0842 89.9396C48.4857 89.8487 48.8891 89.7767 49.2944 89.7237C49.8247 89.6555 50.2546 89.6044 50.5842 89.5703C50.9175 89.5324 51.1599 89.4699 51.3114 89.3828C51.4667 89.2957 51.5444 89.1442 51.5444 88.9283V88.8828C51.5444 88.3222 51.391 87.8866 51.0842 87.576C50.7811 87.2654 50.3209 87.1101 49.7035 87.1101C49.0633 87.1101 48.5614 87.2502 48.1978 87.5305C47.8342 87.8108 47.5785 88.1101 47.4308 88.4283L46.158 87.9737C46.3853 87.4434 46.6883 87.0305 47.0671 86.7351C47.4497 86.4358 47.8664 86.2275 48.3171 86.1101C48.7717 85.9889 49.2186 85.9283 49.658 85.9283C49.9383 85.9283 50.2603 85.9624 50.6239 86.0305C50.9914 86.0949 51.3455 86.2294 51.6864 86.4339C52.0311 86.6385 52.3171 86.9472 52.5444 87.3601C52.7717 87.773 52.8853 88.326 52.8853 89.0192V94.7692H51.5444V93.5874H51.4762C51.3853 93.7767 51.2338 93.9794 51.0217 94.1953C50.8095 94.4112 50.5273 94.5949 50.1751 94.7464C49.8228 94.898 49.3929 94.9737 48.8853 94.9737ZM49.0898 93.7692C49.6201 93.7692 50.0671 93.665 50.4308 93.4567C50.7982 93.2483 51.0747 92.9794 51.2603 92.6499C51.4497 92.3203 51.5444 91.9737 51.5444 91.6101V90.3828C51.4876 90.451 51.3626 90.5135 51.1694 90.5703C50.98 90.6233 50.7603 90.6707 50.5103 90.7124C50.2641 90.7502 50.0236 90.7843 49.7887 90.8146C49.5576 90.8411 49.3701 90.8639 49.2262 90.8828C48.8777 90.9283 48.552 91.0021 48.2489 91.1044C47.9497 91.2029 47.7073 91.3525 47.5217 91.5533C47.3398 91.7502 47.2489 92.0192 47.2489 92.3601C47.2489 92.826 47.4213 93.1783 47.766 93.4169C48.1145 93.6517 48.5558 93.7692 49.0898 93.7692ZM56.6737 89.5192V94.7692H55.3327V86.0419H56.6282V87.4055H56.7418C56.9464 86.9624 57.257 86.6063 57.6737 86.3374C58.0903 86.0646 58.6282 85.9283 59.2873 85.9283C59.8782 85.9283 60.3952 86.0495 60.8384 86.2919C61.2816 86.5305 61.6263 86.8942 61.8725 87.3828C62.1187 87.8677 62.2418 88.4813 62.2418 89.2237V94.7692H60.9009V89.3146C60.9009 88.629 60.7229 88.0949 60.3668 87.7124C60.0108 87.326 59.5221 87.1328 58.9009 87.1328C58.4729 87.1328 58.0903 87.2256 57.7532 87.4112C57.4199 87.5968 57.1566 87.8677 56.9634 88.2237C56.7702 88.5798 56.6737 89.0116 56.6737 89.5192ZM65.2433 98.0419C65.016 98.0419 64.8133 98.023 64.6353 97.9851C64.4573 97.951 64.3342 97.9169 64.266 97.8828L64.6069 96.701C64.9326 96.7843 65.2205 96.8146 65.4705 96.7919C65.7205 96.7692 65.9421 96.6574 66.1353 96.4567C66.3323 96.2597 66.5122 95.9396 66.6751 95.4964L66.9251 94.8146L63.6978 86.0419H65.1523L67.5614 92.9964H67.6523L70.0614 86.0419H71.516L67.8114 96.0419C67.6448 96.4927 67.4383 96.8658 67.1921 97.1612C66.9459 97.4605 66.6599 97.6821 66.3342 97.826C66.0122 97.9699 65.6486 98.0419 65.2433 98.0419ZM87.195 83.1328V94.7692H85.8313L79.4904 85.6328H79.3768V94.7692H77.9677V83.1328H79.3313L85.695 92.2919H85.8086V83.1328H87.195ZM92.4009 94.9737C91.8479 94.9737 91.346 94.8696 90.8952 94.6612C90.4445 94.4491 90.0865 94.1442 89.8214 93.7464C89.5562 93.3449 89.4237 92.8601 89.4237 92.2919C89.4237 91.7919 89.5221 91.3866 89.7191 91.076C89.9161 90.7616 90.1793 90.5154 90.5089 90.3374C90.8384 90.1593 91.2021 90.0267 91.5998 89.9396C92.0013 89.8487 92.4047 89.7767 92.81 89.7237C93.3403 89.6555 93.7702 89.6044 94.0998 89.5703C94.4331 89.5324 94.6755 89.4699 94.8271 89.3828C94.9824 89.2957 95.06 89.1442 95.06 88.9283V88.8828C95.06 88.3222 94.9066 87.8866 94.5998 87.576C94.2968 87.2654 93.8365 87.1101 93.2191 87.1101C92.579 87.1101 92.0771 87.2502 91.7134 87.5305C91.3498 87.8108 91.0941 88.1101 90.9464 88.4283L89.6737 87.9737C89.9009 87.4434 90.204 87.0305 90.5827 86.7351C90.9653 86.4358 91.382 86.2275 91.8327 86.1101C92.2873 85.9889 92.7343 85.9283 93.1737 85.9283C93.454 85.9283 93.7759 85.9624 94.1396 86.0305C94.507 86.0949 94.8612 86.2294 95.2021 86.4339C95.5468 86.6385 95.8327 86.9472 96.06 87.3601C96.2873 87.773 96.4009 88.326 96.4009 89.0192V94.7692H95.06V93.5874H94.9918C94.9009 93.7767 94.7494 93.9794 94.5373 94.1953C94.3252 94.4112 94.043 94.5949 93.6907 94.7464C93.3384 94.898 92.9085 94.9737 92.4009 94.9737ZM92.6055 93.7692C93.1358 93.7692 93.5827 93.665 93.9464 93.4567C94.3138 93.2483 94.5903 92.9794 94.7759 92.6499C94.9653 92.3203 95.06 91.9737 95.06 91.6101V90.3828C95.0032 90.451 94.8782 90.5135 94.685 90.5703C94.4956 90.6233 94.2759 90.6707 94.0259 90.7124C93.7797 90.7502 93.5392 90.7843 93.3043 90.8146C93.0733 90.8411 92.8858 90.8639 92.7418 90.8828C92.3933 90.9283 92.0676 91.0021 91.7646 91.1044C91.4653 91.2029 91.2229 91.3525 91.0373 91.5533C90.8555 91.7502 90.7646 92.0192 90.7646 92.3601C90.7646 92.826 90.9369 93.1783 91.2816 93.4169C91.6301 93.6517 92.0714 93.7692 92.6055 93.7692ZM98.8484 94.7692V86.0419H100.144V87.4055H100.257C100.439 86.9396 100.733 86.5779 101.138 86.3203C101.543 86.0589 102.03 85.9283 102.598 85.9283C103.174 85.9283 103.653 86.0589 104.036 86.3203C104.422 86.5779 104.723 86.9396 104.939 87.4055H105.03C105.254 86.9548 105.589 86.5968 106.036 86.3317C106.483 86.0627 107.019 85.9283 107.644 85.9283C108.424 85.9283 109.062 86.1726 109.559 86.6612C110.055 87.1461 110.303 87.9017 110.303 88.9283V94.7692H108.962V88.9283C108.962 88.2843 108.786 87.8241 108.434 87.5476C108.081 87.2711 107.667 87.1328 107.189 87.1328C106.576 87.1328 106.1 87.3184 105.763 87.6896C105.426 88.0571 105.257 88.523 105.257 89.0874V94.7692H103.894V88.7919C103.894 88.2957 103.733 87.8961 103.411 87.593C103.089 87.2862 102.674 87.1328 102.167 87.1328C101.818 87.1328 101.492 87.2256 101.189 87.4112C100.89 87.5968 100.648 87.8544 100.462 88.1839C100.28 88.5097 100.189 88.8866 100.189 89.3146V94.7692H98.8484ZM116.414 94.951C115.573 94.951 114.847 94.7654 114.238 94.3942C113.632 94.0192 113.164 93.4964 112.834 92.826C112.508 92.1517 112.346 91.3677 112.346 90.4737C112.346 89.5798 112.508 88.7919 112.834 88.1101C113.164 87.4245 113.622 86.8904 114.209 86.5078C114.8 86.1214 115.489 85.9283 116.277 85.9283C116.732 85.9283 117.181 86.004 117.624 86.1555C118.067 86.3071 118.471 86.5533 118.834 86.8942C119.198 87.2313 119.488 87.6783 119.703 88.2351C119.919 88.7919 120.027 89.4775 120.027 90.2919V90.8601H113.3V89.701H118.664C118.664 89.2086 118.565 88.7692 118.368 88.3828C118.175 87.9964 117.899 87.6915 117.539 87.468C117.183 87.2446 116.762 87.1328 116.277 87.1328C115.743 87.1328 115.281 87.2654 114.891 87.5305C114.505 87.7919 114.207 88.1328 113.999 88.5533C113.791 88.9737 113.686 89.4245 113.686 89.9055V90.6783C113.686 91.3374 113.8 91.8961 114.027 92.3544C114.258 92.8089 114.578 93.1555 114.988 93.3942C115.397 93.629 115.872 93.7464 116.414 93.7464C116.766 93.7464 117.084 93.6972 117.368 93.5987C117.656 93.4964 117.904 93.3449 118.113 93.1442C118.321 92.9396 118.482 92.6858 118.596 92.3828L119.891 92.7464C119.755 93.1858 119.525 93.5722 119.203 93.9055C118.882 94.2351 118.484 94.4927 118.01 94.6783C117.537 94.8601 117.005 94.951 116.414 94.951Z" fill="url(#paint0_linear_1_3908)"/>
<path d="M91.9979 32.5336C91.4125 32.0136 89.8603 39.6454 89.7712 40.4258C89.308 44.4413 88.6333 48.4482 88.0644 52.4551C86.9668 60.2258 85.87 68.0044 84.7724 75.7743C80.4074 75.7743 76.0344 75.7578 71.6621 75.742C61.4698 75.7096 51.2609 75.6765 41.0757 75.7578C35.0694 75.8067 29.0709 75.8959 23.0804 76.0584C23.0235 76.0584 22.8854 75.4816 22.6898 74.4977C21.552 68.9214 18.4549 50.1701 18.0809 48.1627C17.5609 45.3418 17.0733 42.7979 16.1951 40.1324C15.8621 39.1405 13.992 32.4754 14.8537 31.8093C21.1851 26.8998 26.0544 20.8122 32.4916 16.1385C34.4422 14.7245 52.4541 0.272821 53.3891 0.971203C66.7195 10.9212 79.6025 21.4552 91.9979 32.5336Z" fill="url(#paint1_linear_1_3908)"/>
<path d="M80.1242 67.9886C80.0508 69.8421 78.8238 71.4186 77.6292 72.8413C76.4834 74.215 75.3448 75.1659 73.6223 75.6377C73.0533 75.7923 72.46 75.345 71.899 75.6053C71.8098 75.6463 71.7285 75.6945 71.663 75.7434C61.4707 75.7111 51.2618 75.678 41.0767 75.7592C40.8163 75.0522 40.589 74.3366 40.3855 73.6138C39.6705 71.1022 39.2066 68.5172 39.0196 65.9086C38.8003 62.9093 39.613 60.1129 39.8079 57.1137C40.0841 52.8299 41.2795 48.6439 41.4176 44.3198C41.5636 39.6138 34.7848 39.6218 33.2405 36.1104C32.5824 34.6065 33.1104 33.4931 33.7124 32.1438C34.0296 32.5912 34.6632 32.794 35.1753 32.5991C35.6953 32.4121 36.0528 31.8597 36.0046 31.3145C37.8415 32.7372 41.0357 32.4445 43.1732 32.1273C46.6846 31.6073 50.8785 31.7619 52.9679 34.631C55.2759 37.7848 53.8784 42.5397 55.2356 46.1402C56.6252 49.8306 59.82 52.5127 62.3719 55.3573C65.5416 58.8931 68.4437 62.1361 70.3943 66.558C71.2804 68.5654 71.9551 70.9555 70.923 72.906C73.3856 72.532 75.5966 70.8008 76.5395 68.5007C77.4824 66.2006 77.1329 63.4128 75.6455 61.4212C77.832 63.1035 80.2378 65.2332 80.1242 67.9886Z" fill="white"/>
<path d="M50.4633 35.5007C50.9013 35.7115 51.2718 36.0517 51.5372 36.4595C52.7699 38.3547 54.1099 40.6793 53.323 43.0657C53.0957 43.754 52.6714 44.351 52.0679 44.753C49.8937 46.2037 47.6719 44.315 47.1929 42.2343C46.765 40.3772 46.4514 33.5732 50.4633 35.5007Z" fill="url(#paint2_linear_1_3908)"/>
<path d="M44.3062 34.0577C42.5549 34.6496 43.2914 37.3014 45.1714 36.7102C45.8727 36.4894 46.3071 35.6465 46.0791 34.9474C45.8511 34.2475 45.0031 33.8217 44.3062 34.0577Z" fill="url(#paint3_linear_1_3908)"/>
<defs>
<linearGradient id="paint0_linear_1_3908" x1="60.7461" y1="79.7692" x2="60.7461" y2="98.7692" gradientUnits="userSpaceOnUse">
<stop stop-color="#F87537"/>
<stop offset="1" stop-color="#FBA81F"/>
</linearGradient>
<linearGradient id="paint1_linear_1_3908" x1="53.3134" y1="0.946701" x2="53.3134" y2="76.0584" gradientUnits="userSpaceOnUse">
<stop stop-color="#F87537"/>
<stop offset="1" stop-color="#FBA81F"/>
</linearGradient>
<linearGradient id="paint2_linear_1_3908" x1="50.2551" y1="35.1603" x2="50.2551" y2="45.2643" gradientUnits="userSpaceOnUse">
<stop stop-color="#F87537"/>
<stop offset="1" stop-color="#FBA81F"/>
</linearGradient>
<linearGradient id="paint3_linear_1_3908" x1="44.7263" y1="33.9922" x2="44.7263" y2="36.7956" gradientUnits="userSpaceOnUse">
<stop stop-color="#F87537"/>
<stop offset="1" stop-color="#FBA81F"/>
</linearGradient>
</defs>
</svg>
